<svg width="69" height="22" viewBox="0 0 69 22" fill="none" xmlns="http://www.w3.org/2000/svg">
<path d="M25.6582 11.1445C24.0648 11.1445 22.8391 10.6971 22.0219 9.80231C21.1639 8.9075 20.7554 7.64663 20.7554 6.0197C20.7554 5.28758 20.8779 4.55546 21.1231 3.86402C21.3682 3.25392 21.7359 2.72517 22.1854 2.23709C22.6348 1.78968 23.1659 1.4643 23.7788 1.26093C24.4325 1.01689 25.0862 0.935547 25.7808 0.935547C26.1485 0.935547 26.5571 0.935547 26.9248 1.01689C27.2108 1.05757 27.5376 1.13891 27.8236 1.22026C28.0279 1.30161 28.2731 1.38295 28.4773 1.4643C28.6408 1.54565 28.7633 1.62699 28.8451 1.66766L28.1913 3.45729C27.8645 3.29459 27.4968 3.1319 27.1291 3.05055C26.6796 2.92853 26.2302 2.88786 25.7808 2.88786C25.4539 2.88786 25.0862 2.92853 24.7594 3.05055C24.4325 3.17257 24.1465 3.33527 23.9014 3.57931C23.6154 3.86402 23.4111 4.1894 23.2885 4.55546C23.1251 5.00287 23.0434 5.49095 23.0434 5.97902C23.0434 6.38576 23.0842 6.83316 23.2068 7.23989C23.2885 7.60595 23.4519 7.93134 23.6971 8.25672C23.9422 8.54144 24.2282 8.78548 24.5551 8.94817C24.9636 9.11086 25.4131 9.19221 25.8625 9.19221C26.1485 9.19221 26.4345 9.19221 26.7205 9.15154C26.9656 9.15154 27.1699 9.07019 27.4151 9.02952C27.5785 8.98884 27.7828 8.9075 27.9462 8.86682C28.1096 8.78548 28.2322 8.7448 28.3548 8.70413L28.9676 10.4531C28.5591 10.6971 28.1096 10.8598 27.6602 10.9412C27.0065 11.1038 26.3528 11.1852 25.6991 11.1445H25.6582Z" fill="white"/>
<path d="M33.0533 3.29458C33.5844 3.29458 34.1156 3.33525 34.6059 3.49795C34.9736 3.61997 35.3413 3.82333 35.6273 4.10804C35.8724 4.39276 36.0767 4.71814 36.1584 5.0842C36.281 5.49093 36.3219 5.93834 36.3219 6.34507V10.7378C36.0359 10.8191 35.5864 10.9005 35.0553 10.9818C34.4016 11.0632 33.7479 11.1038 33.0942 11.1038C32.6447 11.1038 32.1953 11.1038 31.7867 10.9818C31.419 10.9005 31.0922 10.7784 30.7653 10.5751C30.4793 10.3717 30.275 10.1277 30.1116 9.80229C29.9482 9.43623 29.8665 9.07017 29.8665 8.66344C29.8665 8.29738 29.9482 7.89065 30.1116 7.56527C30.275 7.28055 30.5202 7.03651 30.8062 6.83315C31.133 6.62978 31.4599 6.50776 31.8276 6.42642C32.1953 6.34507 32.6039 6.3044 33.0124 6.3044C33.2576 6.3044 33.5027 6.3044 33.7479 6.3044C33.9113 6.3044 34.1156 6.34507 34.279 6.38574V6.18238C34.279 5.85699 34.1564 5.53161 33.9522 5.32824C33.6253 5.0842 33.2167 4.96218 32.8082 5.00285C32.4404 5.00285 32.1136 5.00285 31.7459 5.0842C31.419 5.12487 31.133 5.20622 30.847 5.28757L30.561 3.57929C30.6836 3.57929 30.847 3.49795 31.0104 3.45727C31.1739 3.4166 31.3782 3.37593 31.6233 3.33525C31.8684 3.29458 32.0727 3.29458 32.3179 3.25391C32.563 3.25391 32.8082 3.25391 33.0533 3.25391V3.29458ZM33.2167 9.47691C33.421 9.47691 33.6253 9.47691 33.8296 9.47691C33.993 9.47691 34.1156 9.47691 34.279 9.43623V7.84998C34.1564 7.84998 34.0339 7.80931 33.9113 7.80931C33.7479 7.80931 33.5844 7.80931 33.4619 7.80931C33.2576 7.80931 33.0942 7.80931 32.8899 7.80931C32.7264 7.80931 32.563 7.89065 32.4404 7.93132C32.3179 7.972 32.1953 8.09402 32.1136 8.21604C32.0319 8.33806 31.991 8.50075 31.991 8.62277C31.991 8.90748 32.0727 9.15152 32.3179 9.31421C32.6039 9.43623 32.9307 9.51758 33.2167 9.51758V9.47691Z" fill="white"/>
<path d="M45.147 7.23979C45.147 7.76854 45.0653 8.29729 44.9427 8.82604C44.8201 9.27345 44.6158 9.68018 44.3298 10.0462C44.0438 10.3716 43.717 10.6563 43.3084 10.819C42.859 11.0224 42.3687 11.1037 41.9193 11.1037C41.6333 11.1037 41.3881 11.1037 41.1021 11.0224C40.857 10.9817 40.6119 10.9004 40.3667 10.7784V13.5848H38.2422V3.78256C38.4464 3.74189 38.6507 3.66054 38.8959 3.61987C39.141 3.5792 39.3862 3.53852 39.6722 3.49785C39.9582 3.45718 40.2033 3.4165 40.4893 3.4165C40.7753 3.4165 41.0204 3.4165 41.3064 3.4165C41.8784 3.4165 42.4096 3.49785 42.9407 3.70122C43.3901 3.86391 43.7987 4.14862 44.1664 4.47401C44.4933 4.84007 44.7793 5.2468 44.9427 5.6942C45.1061 6.22296 45.2287 6.75171 45.2287 7.32113L45.147 7.23979ZM42.9816 7.28046C42.9816 6.71103 42.859 6.18228 42.5321 5.73488C42.2053 5.32815 41.715 5.12478 41.2247 5.16545C41.0204 5.16545 40.857 5.16545 40.6936 5.16545C40.5301 5.16545 40.4076 5.16545 40.285 5.20613V8.98873C40.4484 9.07008 40.6119 9.15143 40.8161 9.1921C41.0204 9.23277 41.2247 9.27345 41.4699 9.27345C42.4913 9.27345 42.9816 8.62267 42.9816 7.23979V7.28046Z" fill="white"/>
<path d="M49.1101 1.34233C49.1101 1.66771 48.9875 2.03377 48.7424 2.23714C48.2521 2.68454 47.4758 2.68454 46.9855 2.23714C46.4953 1.74906 46.4953 0.935595 46.9855 0.406843C47.4758 -0.0405623 48.2521 -0.0405623 48.7424 0.406843C48.9875 0.650882 49.151 0.976268 49.1101 1.30165V1.34233ZM48.9058 10.9412H46.7813V3.49801H48.9058V10.9412Z" fill="white"/>
<path d="M50.8261 1.66767L52.9507 1.34229V3.53864H55.4838V5.28759H52.9507V7.89067C52.9507 8.25673 53.0324 8.62279 53.1958 8.94818C53.4001 9.23289 53.7678 9.39558 54.1355 9.35491C54.3807 9.35491 54.6258 9.35491 54.8301 9.27356C55.0752 9.27356 55.2795 9.19221 55.4838 9.11087L55.7698 10.7378C55.4838 10.8598 55.1978 10.9412 54.9118 11.0225C54.5441 11.1039 54.1355 11.1445 53.7678 11.1445C53.2775 11.1445 52.7872 11.0632 52.3378 10.9005C51.9701 10.7785 51.6841 10.5344 51.439 10.2497C51.1938 9.96501 51.0304 9.59895 50.9487 9.23289C50.867 8.78548 50.8261 8.37875 50.8261 7.93135V1.66767Z" fill="white"/>
<path d="M59.5695 3.29458C60.1006 3.29458 60.6318 3.33525 61.1221 3.49795C61.4898 3.61997 61.8575 3.82333 62.1435 4.10804C62.3886 4.39276 62.5929 4.71814 62.6746 5.0842C62.7972 5.49093 62.8381 5.93834 62.8381 6.34507V10.7378C62.5521 10.8191 62.1026 10.9005 61.5715 10.9818C60.9178 11.0632 60.2641 11.1038 59.6104 11.1038C59.1609 11.1038 58.7115 11.1038 58.3029 10.9818C57.9352 10.9005 57.6084 10.7784 57.2815 10.5751C56.9955 10.3717 56.7912 10.1277 56.6278 9.80229C56.4644 9.43623 56.3827 9.07017 56.3827 8.66344C56.3827 8.29738 56.4644 7.89065 56.6278 7.56527C56.7912 7.28055 57.0364 7.03651 57.3224 6.83315C57.6492 6.62978 57.9761 6.50776 58.3438 6.42642C58.7115 6.34507 59.1201 6.3044 59.5286 6.3044C59.7738 6.3044 60.0189 6.3044 60.2641 6.3044C60.4275 6.3044 60.6318 6.34507 60.7952 6.38574V6.18238C60.7952 5.85699 60.6726 5.53161 60.4684 5.32824C60.1415 5.0842 59.7329 4.96218 59.3244 5.00285C58.9566 5.00285 58.6298 5.00285 58.2621 5.0842C57.9352 5.12487 57.6492 5.20622 57.3632 5.28757L57.0772 3.57929C57.1998 3.57929 57.3632 3.49795 57.5267 3.45727C57.6901 3.4166 57.8944 3.37593 58.1395 3.33525C58.3847 3.29458 58.5889 3.29458 58.8341 3.25391C59.0792 3.25391 59.3244 3.25391 59.5695 3.25391V3.29458ZM59.7329 9.47691C59.9372 9.47691 60.1415 9.47691 60.3458 9.47691C60.5092 9.47691 60.6318 9.47691 60.7952 9.43623V7.84998C60.6726 7.84998 60.5501 7.80931 60.4275 7.80931C60.2641 7.80931 60.1006 7.80931 59.9781 7.80931C59.7738 7.80931 59.6104 7.80931 59.4061 7.80931C59.2427 7.80931 59.0792 7.89065 58.9567 7.93132C58.8341 7.972 58.7115 8.09402 58.6298 8.21604C58.5481 8.33806 58.5072 8.50075 58.5072 8.62277C58.5072 8.90748 58.5889 9.15152 58.8341 9.31421C59.1201 9.43623 59.4469 9.51758 59.7329 9.51758V9.47691Z" fill="white"/>
<path d="M67.7409 11.0631C67.2506 11.0631 66.7195 11.0224 66.2292 10.8597C65.9024 10.7784 65.5755 10.575 65.3304 10.331C65.1261 10.1276 64.9626 9.84292 64.8809 9.51753C64.7992 9.15147 64.7584 8.82609 64.7584 8.46003V0.325385L66.8829 0V8.09397C66.8829 8.25666 66.8829 8.41935 66.9238 8.62272C66.9238 8.74474 67.0055 8.90743 67.0872 8.98878C67.1689 9.1108 67.2915 9.19214 67.4549 9.23282C67.6592 9.31416 67.8635 9.35484 68.0678 9.35484L67.7818 11.1038L67.7409 11.0631Z" fill="white"/>
<path d="M25.5765 20.4993C25.0453 20.4993 24.6368 20.1333 24.5959 19.6452C24.5959 19.6452 24.5959 19.6045 24.5959 19.5638V17.6929H24.8819V19.5232C24.8819 19.8892 25.1679 20.2146 25.5356 20.2146C25.9033 20.2146 26.2302 19.9299 26.2302 19.5638C26.2302 19.5638 26.2302 19.5638 26.2302 19.5232V17.6929H26.5162V19.5638C26.5162 20.0926 26.1076 20.4993 25.6173 20.4993C25.6173 20.4993 25.5765 20.4993 25.5356 20.4993H25.5765Z" fill="white"/>
<path d="M28.5182 20.4587V19.2791C28.5182 19.0351 28.3548 18.7911 28.0688 18.7504C27.8236 18.7504 27.5785 18.9131 27.5376 19.1978V19.2791V20.4587H27.2516V18.547H27.5376V18.7504C27.6602 18.5877 27.8645 18.5063 28.0688 18.5063C28.2322 18.5063 28.4365 18.547 28.559 18.669C28.6816 18.8317 28.7633 18.9944 28.7633 19.1978V20.418H28.4773L28.5182 20.4587Z" fill="white"/>
<path d="M30.6019 20.4588V20.2554C30.4385 20.4181 30.2342 20.4995 30.0299 20.4588C29.8256 20.4588 29.6213 20.4181 29.4988 20.2961C29.417 20.1741 29.3353 20.0521 29.3353 19.8894C29.3353 19.564 29.5805 19.3199 29.989 19.3199H30.561V19.1166C30.561 18.8319 30.4385 18.7098 30.0708 18.7098C29.8665 18.7098 29.703 18.7505 29.5805 18.9132L29.3762 18.7505C29.5396 18.5471 29.7848 18.4251 30.0708 18.4658C30.6019 18.4658 30.847 18.6692 30.847 19.1166V20.4181H30.561L30.6019 20.4588ZM30.6019 19.564H30.0708C29.7848 19.564 29.6213 19.686 29.6213 19.8894C29.6213 20.0927 29.7439 20.2147 30.0708 20.2147C30.2342 20.2147 30.3976 20.2147 30.5202 20.0927C30.6019 20.0114 30.6428 19.8894 30.6019 19.7673V19.564Z" fill="white"/>
<path d="M32.7265 19.5639C32.7265 19.9706 32.9307 20.2146 33.2985 20.2146C33.5027 20.2146 33.6662 20.1333 33.7887 20.0113L33.993 20.174C33.8296 20.3773 33.5436 20.4993 33.2985 20.4587C32.7673 20.4587 32.4405 20.1333 32.4405 19.4825C32.4405 18.8317 32.7265 18.5063 33.2167 18.5063C33.707 18.5063 33.993 18.8724 33.993 19.4418V19.5639H32.6856H32.7265ZM33.707 19.0351C33.5845 18.7911 33.2985 18.669 33.0533 18.7911C32.9307 18.8317 32.849 18.9131 32.8082 19.0351C32.7673 19.1571 32.7265 19.2385 32.7673 19.3605H33.7887C33.7887 19.2385 33.7887 19.1571 33.7479 19.0351H33.707Z" fill="white"/>
<path d="M37.139 20.4588V19.2793C37.139 18.9946 36.9347 18.7912 36.6896 18.7912C36.4036 18.7912 36.1993 18.9946 36.1993 19.2386V20.4588H35.9133V19.2793C35.9133 19.0352 35.7907 18.7912 35.5456 18.7505H35.4639C35.2187 18.7505 34.9736 18.9132 34.9736 19.1573C34.9736 19.1573 34.9736 19.1979 34.9736 19.2386V20.4181H34.6876V18.5065H34.9736V18.7099C35.0962 18.5472 35.3004 18.4658 35.5047 18.4658C35.7499 18.4658 35.995 18.5878 36.1176 18.7912C36.281 18.5878 36.4853 18.4658 36.7713 18.4658C36.9756 18.4658 37.139 18.5065 37.2616 18.6285C37.3842 18.7912 37.4659 18.9539 37.4659 19.1573V20.3775H37.1799L37.139 20.4588Z" fill="white"/>
<path d="M39.427 20.296C39.3044 20.4181 39.141 20.4587 38.9367 20.4587C38.7324 20.4587 38.5281 20.3774 38.4056 20.2147V21.3129H38.1196V18.5064H38.4056V18.7505C38.5281 18.5878 38.7324 18.4657 38.9367 18.5064C39.1001 18.5064 39.2636 18.5471 39.427 18.6691C39.7538 19.1572 39.7538 19.808 39.427 20.296ZM38.8959 18.7505C38.4873 18.7505 38.4056 19.1165 38.4056 19.4826C38.4056 19.8486 38.4873 20.2147 38.8959 20.2147C39.3044 20.2147 39.3861 19.8486 39.3861 19.4826C39.3861 19.1165 39.3044 18.7505 38.8959 18.7505Z" fill="white"/>
<path d="M41.3473 18.9129C41.2656 18.8315 41.143 18.7502 41.0204 18.7908C40.7753 18.7908 40.5301 18.9942 40.571 19.2789C40.571 19.2789 40.571 19.2789 40.571 19.3196V20.4991H40.285V18.5875H40.571V18.8315C40.6936 18.6688 40.8979 18.5468 41.1021 18.5875C41.2656 18.5875 41.429 18.6281 41.5516 18.7502L41.3473 18.9535V18.9129Z" fill="white"/>
<path d="M41.9601 19.5639C41.9601 19.9706 42.1644 20.2146 42.5321 20.2146C42.7364 20.2146 42.8998 20.1333 43.0224 20.0113L43.2267 20.174C43.0633 20.3773 42.7773 20.4993 42.5321 20.4587C42.001 20.4587 41.6741 20.1333 41.6741 19.4825C41.6741 18.8317 41.9601 18.5063 42.4504 18.5063C42.9407 18.5063 43.2267 18.8724 43.2267 19.4418V19.5639H41.9193H41.9601ZM42.9407 19.0351C42.8181 18.7911 42.5321 18.669 42.287 18.7911C42.1644 18.8317 42.0827 18.9131 42.0418 19.0351C42.001 19.1571 41.9601 19.2385 42.001 19.3605H43.0224C43.0224 19.2385 43.0224 19.1571 42.9816 19.0351H42.9407Z" fill="white"/>
<path d="M44.4933 20.4993C44.2073 20.4993 43.9213 20.418 43.717 20.2146L43.9213 20.0113C44.0847 20.1739 44.289 20.2553 44.5341 20.2146C44.861 20.2146 45.0653 20.0926 45.0653 19.8892C45.0653 19.6859 44.9835 19.6452 44.7384 19.6045H44.4116C44.0438 19.5639 43.8396 19.3605 43.8396 19.0758C43.8396 18.7911 44.1255 18.5063 44.5341 18.5063C44.7793 18.5063 45.0244 18.5877 45.2287 18.7097L45.0244 18.9131C44.861 18.7911 44.6975 18.7504 44.4933 18.7504C44.2073 18.7504 44.0438 18.8724 44.0438 19.0758C44.0438 19.2791 44.1256 19.3198 44.3707 19.3605H44.6975C45.0244 19.4012 45.2695 19.5639 45.2695 19.8892C45.2695 20.2553 44.9427 20.4587 44.4933 20.4587V20.4993Z" fill="white"/>
<path d="M46.9447 20.4588V20.2554C46.7813 20.4181 46.577 20.4995 46.3727 20.4588C46.1684 20.4588 45.9641 20.4181 45.8416 20.2961C45.7598 20.1741 45.6781 20.0521 45.6781 19.8894C45.6781 19.564 45.9233 19.3199 46.3318 19.3199H46.9038V19.1166C46.9038 18.8319 46.7813 18.7098 46.4136 18.7098C46.2093 18.7098 46.0458 18.7505 45.9233 18.9132L45.719 18.7505C45.8824 18.5471 46.1276 18.4251 46.4136 18.4658C46.9447 18.4658 47.1898 18.6692 47.1898 19.1166V20.4181H46.9038L46.9447 20.4588ZM46.9447 19.564H46.4136C46.1276 19.564 45.9641 19.686 45.9641 19.8894C45.9641 20.0927 46.0867 20.2147 46.4136 20.2147C46.577 20.2147 46.7404 20.2147 46.863 20.0927C46.9447 20.0114 46.9856 19.8894 46.9447 19.7673V19.564Z" fill="white"/>
<path d="M55.8515 17.6931V19.6454C55.8515 20.2961 55.1978 20.6622 54.5032 20.6622C53.8087 20.6622 53.1958 20.3368 53.1958 19.6454V17.0016C53.4818 16.9609 53.7678 17.1643 53.8087 17.4897C53.8087 17.5304 53.8087 17.6117 53.8087 17.6524V19.5233C53.8087 19.8894 54.0947 20.0521 54.5032 20.0521C54.9118 20.0521 55.1978 19.8487 55.1978 19.5233V17.0423C55.6472 17.0423 55.8515 17.2457 55.8515 17.7337V17.6931ZM58.0169 17.0016C57.2407 17.0016 56.7095 17.449 56.7095 18.3845V20.6215H57.3224V18.3845C57.2815 18.0184 57.5267 17.6524 57.9352 17.6117C57.9761 17.6117 58.0169 17.6117 58.0986 17.6117H58.3029C58.8749 17.6117 58.9566 17.327 58.9566 17.0016H58.0578H58.0169ZM60.7135 17.0016H62.1026V17.5304V20.6215C61.6941 20.6215 61.4898 20.4995 61.4489 20.1334C61.2038 20.4995 60.7952 20.7029 60.3866 20.7029C59.4061 20.7029 58.8341 19.9301 58.8749 18.8319C58.8749 17.6524 59.6921 17.0016 60.5501 17.0016H60.7135ZM61.4489 17.571H60.7135C60.7135 17.571 60.6318 17.571 60.5909 17.571C60.0598 17.571 59.6104 17.9371 59.6104 18.7912C59.6104 19.686 59.9781 20.0521 60.5501 20.0521C61.0404 20.0521 61.4489 19.686 61.4489 19.198C61.4489 19.198 61.4489 19.1166 61.4489 19.0759V17.5304V17.571ZM51.6841 18.5879L50.9078 18.3845C50.7035 18.3438 50.4993 18.2218 50.4993 17.9778C50.4993 17.7337 50.6627 17.571 50.9895 17.571H51.6841C51.9701 17.571 52.3378 17.4897 52.3378 16.9609H51.0304C50.2541 16.9609 49.7638 17.3677 49.7638 17.9371C49.7638 18.5065 50.0907 18.7912 50.7035 18.9133L51.3572 19.0759C51.5615 19.0759 51.725 19.2793 51.725 19.4827C51.725 19.7674 51.5615 19.9301 51.153 19.9301H49.8455V20.5402H51.153C51.9701 20.5402 52.4195 20.1334 52.4195 19.564C52.4195 18.9946 52.2152 18.7099 51.6024 18.5472L51.6841 18.5879Z" fill="white"/>
<path d="M64.6766 21.3129C64.2681 21.4349 63.9004 21.5569 63.4918 21.5976C63.5735 21.6382 63.6552 21.6789 63.7778 21.7196C63.9412 21.7196 64.1046 21.7196 64.2681 21.6789C64.4315 21.6382 64.6358 21.5569 64.7992 21.4755C64.9626 21.3942 65.1261 21.3129 65.2895 21.1908C65.4121 21.1095 65.5346 21.0281 65.6164 20.9061C65.3304 21.0688 65.0444 21.2315 64.7175 21.3129H64.6766ZM65.5346 20.6621C65.0035 20.8248 64.4724 20.9468 63.9004 20.9875C63.4918 21.0688 63.1241 21.0688 62.9198 21.0688H62.8381C62.9606 21.1908 63.0832 21.2315 63.2466 21.2722C63.6552 21.2722 64.0638 21.2722 64.4315 21.1095C64.8401 20.9875 65.2078 20.8248 65.5755 20.6621H65.5346ZM65.4529 21.3129C65.2078 21.5569 64.8809 21.7196 64.5541 21.8009C64.7175 21.8823 64.9218 21.8416 65.0852 21.7603C65.2486 21.6789 65.4121 21.4755 65.4529 21.3129ZM63.7369 16.9201C63.8186 17.0015 63.9412 17.0828 64.0638 17.1235C64.1046 17.1235 66.4743 17.7743 67.0872 17.937C67.3732 18.0183 67.5775 18.059 67.6592 18.0997C67.2506 17.937 64.8401 17.0015 63.9004 16.6354L63.5326 16.4727C63.5326 16.5948 63.5735 16.7168 63.6552 16.7981C63.6552 16.7981 63.6961 16.8795 63.7369 16.8795V16.9201ZM63.8595 15.9847C63.9004 16.0253 63.9821 16.1067 64.0229 16.1474C64.0229 16.1474 64.0638 16.1474 64.1046 16.188L64.3089 16.31C64.4315 16.3914 66.2701 17.2455 66.5152 17.3675C66.8421 17.5302 67.1281 17.6929 67.2915 17.7336C66.9646 17.5302 65.6572 16.6761 64.7175 16.1067L64.0638 15.6999L63.9412 15.6186L63.6961 15.4966C63.6961 15.6186 63.6961 15.7406 63.7369 15.822C63.7369 15.8626 63.7778 15.944 63.8186 15.9847H63.8595ZM68.0269 18.3437C67.7001 18.303 63.9004 17.6116 63.9004 17.6116C63.9821 17.8556 64.1455 18.0183 64.3498 18.0997C64.3498 18.0997 64.3906 18.0997 64.4315 18.0997L68.0269 18.3437ZM67.2098 18.5471C66.8829 18.5471 66.4743 18.5471 66.0658 18.5471C65.5346 18.5471 64.7175 18.5471 64.7175 18.5471C64.7175 18.6284 64.7992 18.6691 64.8401 18.7098C64.9218 18.7911 65.0444 18.8725 65.1669 18.8725C65.1669 18.8725 65.1669 18.8725 65.2078 18.8725C65.2078 18.8725 65.2078 18.8725 65.2486 18.8725C65.2486 18.8725 67.7409 18.5471 67.8635 18.5064C67.7409 18.5064 67.4958 18.5064 67.2098 18.5064V18.5471ZM67.6592 18.7911C67.4958 18.8318 66.9238 18.9945 66.3926 19.1165C65.9432 19.2385 65.4529 19.3605 65.4529 19.3605C65.4121 19.3605 65.4529 19.3605 65.4529 19.4012C65.4529 19.4012 65.4938 19.4826 65.5346 19.5232C65.5755 19.6046 65.6981 19.6452 65.8206 19.6046C65.8206 19.6046 67.6183 18.8725 67.7001 18.8318L67.6592 18.7911ZM66.8829 20.0113C66.6378 20.2147 66.3109 20.4994 65.9023 20.8248C65.9023 20.8248 65.8615 20.9061 65.8206 20.9875C65.8206 21.0688 65.7798 21.1502 65.7389 21.2315C66.0249 20.9468 66.6378 20.2553 66.8421 20.052L66.8829 20.0113ZM66.4743 19.7266C66.2701 19.8486 65.9841 20.0113 65.8615 20.0927C65.8615 20.0927 65.8615 20.0927 65.8615 20.1333C65.8615 20.1333 65.8615 20.174 65.8615 20.2147C65.8615 20.418 65.9432 20.3774 66.0658 20.296C66.4743 19.93 67.2915 19.2792 67.4549 19.1165C67.2915 19.1978 66.8421 19.4826 66.4743 19.7266Z" fill="white"/>
<path d="M5.39312 11.0223L4.73941 9.23268H1.26657L0.612855 11.0223H0L2.73742 3.5791H3.2277L5.96512 11.0223H5.35227H5.39312ZM2.98256 4.35189L1.42999 8.70393H4.53513L2.98256 4.35189Z" fill="white"/>
<path d="M7.88541 4.10785V7.15834H11.2765V7.64642H7.88541V11.0223H7.31342V3.5791H11.8485V4.06718H7.88541V4.10785Z" fill="white"/>
<path d="M16.0976 7.89046H13.9322V11.0223H13.3602V3.5791H16.0976C17.4051 3.5791 18.3448 4.35189 18.3448 5.73478C18.3448 7.11767 17.3642 7.89046 16.0976 7.89046ZM16.0159 4.10785H13.8914V7.40238H16.0159C17.0374 7.40238 17.7728 6.87363 17.7728 5.77545C17.7728 4.67728 17.0374 4.14853 16.0159 4.14853V4.10785Z" fill="white"/>
</svg>
