<svg width="64" height="23" viewBox="0 0 64 23" fill="none" xmlns="http://www.w3.org/2000/svg">
<path d="M5.20617 11.5606C2.15568 11.5606 0 9.32355 0 6.11037C0 2.89718 2.11501 0.660156 5.20617 0.660156C6.46704 0.660156 7.72791 1.06689 8.74474 1.79901L8.86676 1.88035L8.17531 2.97853L8.0533 2.89718C7.2805 2.32776 6.34502 2.00237 5.36886 1.9617C3.13184 1.9617 1.58625 3.6293 1.58625 6.06969C1.58625 8.51009 3.09116 10.1777 5.36886 10.1777C6.34502 10.1777 7.2805 9.8523 8.0533 9.2422L8.17531 9.16086L8.86676 10.259L8.74474 10.3404C7.72791 11.0725 6.46704 11.4792 5.20617 11.4792" fill="white"/>
<path d="M12.812 11.5604C11.063 11.5604 9.84283 10.3809 9.84283 8.67258V3.71045H11.3477V8.50989C11.3477 9.44537 12.0392 10.2182 12.9747 10.2588C13.0153 10.2588 13.0967 10.2588 13.1374 10.2588C14.3576 10.2588 15.2117 9.32335 15.2117 8.02181V3.71045H16.7166V11.3977H15.4557L15.3337 10.3402C14.7236 11.1536 13.7475 11.6011 12.7713 11.6011" fill="white"/>
<path d="M22.2074 4.76805C20.9872 4.76805 20.1737 5.66286 20.1737 6.92372V8.10325C20.1737 9.36412 21.0278 10.2589 22.2074 10.2589C23.3869 10.2589 24.4444 9.12008 24.4444 7.49315C24.4444 5.86622 23.5089 4.72737 22.2074 4.72737M20.1737 14.5296H18.6688V3.66987H19.9297L20.0517 4.64603C20.6211 3.87323 21.5566 3.4665 22.4921 3.50718C24.5257 3.50718 25.99 5.21545 25.99 7.53382C25.99 9.8522 24.5257 11.5605 22.4921 11.5605C21.5973 11.5605 20.7431 11.1944 20.1737 10.5436V14.5703V14.5296Z" fill="white"/>
<path d="M28.7558 11.3571H27.2509V3.66987H28.5118L28.6338 4.72737C29.1219 3.99526 29.9353 3.54785 30.8301 3.54785C31.1555 3.54785 31.4809 3.58852 31.8063 3.66987H31.9283L31.7656 4.97141H31.6029C31.3182 4.89007 31.0335 4.84939 30.7488 4.84939C29.5693 4.84939 28.7558 5.78488 28.7558 7.20844V11.3571Z" fill="white"/>
<path d="M35.589 11.5604C33.84 11.5604 32.6198 10.3809 32.6198 8.67258V3.71045H34.1247V8.50989C34.1247 9.44537 34.8162 10.2182 35.7517 10.2588C35.7923 10.2588 35.8737 10.2588 35.9143 10.2588C37.1345 10.2588 37.9887 9.32335 37.9887 8.02181V3.71045H39.4936V11.3977H38.2327L38.1107 10.3402C37.5006 11.1536 36.5244 11.6011 35.5483 11.6011" fill="white"/>
<path d="M54.1358 10.9503C54.7459 10.9503 55.234 10.5029 55.2747 9.89283V9.81149V9.4861C55.0306 9.40475 54.7459 9.40475 54.5019 9.40475C53.7291 9.40475 53.2817 9.73014 53.2817 10.2182C53.2817 10.6656 53.6884 10.991 54.1358 10.9503ZM54.4205 8.99802C54.7053 8.99802 54.99 8.99802 55.2747 9.12004V8.71331C55.2747 8.22523 54.868 7.85917 54.4205 7.85917C54.4205 7.85917 54.3799 7.85917 54.3392 7.85917C53.8918 7.85917 53.4851 7.98119 53.0783 8.14388L52.9156 7.69648C53.4037 7.49311 53.8918 7.41177 54.4205 7.37109C55.2747 7.37109 55.8848 7.89985 55.8848 8.71331V10.5436C55.8848 10.7063 56.0068 10.869 56.1695 10.9097C56.1695 10.9097 56.1695 10.9097 56.2102 10.9097C56.2915 10.9097 56.3322 10.9097 56.4135 10.9097V11.3977C56.3322 11.3977 56.1695 11.3977 56.0475 11.3977C55.6814 11.3977 55.356 11.1537 55.3154 10.7876C54.99 11.1944 54.5019 11.4384 53.9731 11.4384C53.2003 11.4384 52.6309 10.9503 52.6309 10.2996C52.6309 9.64879 53.2817 9.0387 54.3799 9.0387" fill="white"/>
<path d="M57.3083 7.98131H56.4949V7.49323H57.3083V6.80179C57.3083 6.19169 57.7557 5.70361 58.3252 5.70361C58.3252 5.70361 58.4065 5.70361 58.4472 5.70361C58.6912 5.70361 58.9759 5.70361 59.22 5.82563L59.1386 6.31371C58.9759 6.27304 58.7726 6.23236 58.6099 6.23236C58.2845 6.23236 57.9591 6.4764 57.9591 6.84246C57.9591 6.84246 57.9591 6.88314 57.9591 6.92381V7.57458H59.0166V8.06266H57.9591V11.3979H57.349V8.06266L57.3083 7.98131Z" fill="white"/>
<path d="M61.4165 7.90019C60.8064 7.90019 60.2776 8.38827 60.2776 8.99836V9.07971V9.68981C60.2369 10.2999 60.6843 10.8287 61.2944 10.8693C61.2944 10.8693 61.3758 10.8693 61.4165 10.8693C62.1486 10.8693 62.6367 10.2592 62.6367 9.36442C62.6367 8.51029 62.1079 7.85951 61.4165 7.85951M59.6675 7.49346H60.1556L60.2369 8.14423C60.5217 7.65615 61.0097 7.41211 61.5385 7.41211C62.5553 7.41211 63.2468 8.22557 63.2468 9.4051C63.2468 10.5846 62.5146 11.3981 61.5385 11.3981C61.0097 11.3981 60.5216 11.154 60.2776 10.7066V12.9437H59.6675V7.49346Z" fill="white"/>
<path d="M52.1836 10.2592C52.1836 9.73041 52.4276 9.24233 52.8344 8.91695L52.2649 7.41204L52.7124 7.24935C52.7937 7.24935 52.875 7.168 52.9564 7.168V6.31386C52.9564 4.80895 51.8175 3.54808 50.3126 3.54808C50.2313 3.54808 50.1906 3.54808 50.1093 3.54808C49.0111 3.54808 48.0349 4.07684 47.4248 4.97165C46.9368 4.03616 46.0013 3.50741 44.9438 3.54808C43.9676 3.54808 43.0728 3.95482 42.5034 4.72761L42.3814 3.71078H41.1205V11.398H42.6254V6.96463C42.6254 5.70377 43.4389 4.84963 44.5777 4.84963C45.4725 4.80895 46.2046 5.45973 46.2453 6.35454C46.2453 6.39521 46.2453 6.43588 46.2453 6.51723V11.4387H47.7502V7.00531C47.7502 5.74444 48.5637 4.8903 49.7025 4.8903C50.5973 4.84963 51.3295 5.5004 51.3701 6.39521C51.3701 6.43588 51.3701 6.47656 51.3701 6.5579V11.4794H52.5497C52.2243 11.1946 52.0616 10.7879 52.0616 10.3405L52.1836 10.2592Z" fill="white"/>
<path d="M54.1358 10.9503C54.7459 10.9503 55.234 10.5029 55.2747 9.89283V9.81149V9.4861C55.0306 9.40475 54.7459 9.40475 54.5019 9.40475C53.7291 9.40475 53.2817 9.73014 53.2817 10.2182C53.2817 10.6656 53.6884 10.991 54.1358 10.9503ZM54.4205 8.99802C54.7053 8.99802 54.99 8.99802 55.2747 9.12004V8.71331C55.2747 8.22523 54.868 7.85917 54.4205 7.85917C54.4205 7.85917 54.3799 7.85917 54.3392 7.85917C53.8918 7.85917 53.4851 7.98119 53.0783 8.14388L52.9156 7.69648C53.4037 7.49311 53.8918 7.41177 54.4205 7.37109C55.2747 7.37109 55.8848 7.89985 55.8848 8.71331V10.5436C55.8848 10.7063 56.0068 10.869 56.1695 10.9097C56.1695 10.9097 56.1695 10.9097 56.2102 10.9097C56.2915 10.9097 56.3322 10.9097 56.4135 10.9097V11.3977C56.3322 11.3977 56.1695 11.3977 56.0475 11.3977C55.6814 11.3977 55.356 11.1537 55.3154 10.7876C54.99 11.1944 54.5019 11.4384 53.9731 11.4384C53.2003 11.4384 52.6309 10.9503 52.6309 10.2996C52.6309 9.64879 53.2817 9.0387 54.3799 9.0387" fill="white"/>
<path d="M57.3083 7.98131H56.4949V7.49323H57.3083V6.80179C57.3083 6.19169 57.7557 5.70361 58.3252 5.70361C58.3252 5.70361 58.4065 5.70361 58.4472 5.70361C58.6912 5.70361 58.9759 5.70361 59.22 5.82563L59.1386 6.31371C58.9759 6.27304 58.7726 6.23236 58.6099 6.23236C58.2845 6.23236 57.9591 6.4764 57.9591 6.84246C57.9591 6.84246 57.9591 6.88314 57.9591 6.92381V7.57458H59.0166V8.06266H57.9591V11.3979H57.349V8.06266L57.3083 7.98131Z" fill="white"/>
<path d="M61.4165 7.90019C60.8064 7.90019 60.2776 8.38827 60.2776 8.99836V9.07971V9.68981C60.2369 10.2999 60.6843 10.8287 61.2944 10.8693C61.2944 10.8693 61.3758 10.8693 61.4165 10.8693C62.1486 10.8693 62.6367 10.2592 62.6367 9.36442C62.6367 8.51029 62.1079 7.85951 61.4165 7.85951M59.6675 7.49346H60.1556L60.2369 8.14423C60.5217 7.65615 61.0097 7.41211 61.5385 7.41211C62.5553 7.41211 63.2468 8.22557 63.2468 9.4051C63.2468 10.5846 62.5146 11.3981 61.5385 11.3981C61.0097 11.3981 60.5216 11.154 60.2776 10.7066V12.9437H59.6675V7.49346Z" fill="white"/>
<path d="M29.366 18.475C29.366 20.3052 30.7895 21.8508 32.6198 22.0135V19.6952C31.8064 19.6545 31.1556 18.963 31.1556 18.1496C31.1149 17.4174 31.6437 16.8074 32.3758 16.7667C32.3758 16.7667 32.4165 16.7667 32.4571 16.7667C33.0266 16.726 33.5553 17.1327 33.596 17.7022C33.596 17.7022 33.596 17.7835 33.596 17.8242C33.596 18.3936 33.2299 18.7597 32.5792 18.841V19.6952C33.8807 19.6952 34.7755 18.841 34.7755 17.6615C34.7755 16.482 33.7587 15.3838 32.3758 15.3838C30.7082 15.3838 29.366 16.6853 29.366 18.3529C29.366 18.3936 29.366 18.4343 29.366 18.475Z" fill="white"/>
<path d="M3.33512 18.5969C3.29444 19.2883 2.64367 19.8171 1.95223 19.7764C1.34213 19.7357 0.813378 19.2477 0.772705 18.5969V16.7666H1.13876V18.5562C1.13876 19.0443 1.58617 19.451 2.07425 19.451C2.56233 19.451 2.96906 19.0443 2.96906 18.5562V16.7666H3.33512V18.5969Z" fill="white"/>
<path d="M4.02667 17.5797H4.31139V17.9865C4.51475 17.7018 4.79946 17.5391 5.12485 17.5391C5.53158 17.5391 5.89764 17.8238 5.93831 18.2712C5.93831 18.2712 5.93831 18.3119 5.93831 18.3525V19.7354H5.57225V18.3932C5.57225 18.1085 5.36889 17.8644 5.0435 17.8238C5.0435 17.8238 5.0435 17.8238 5.00283 17.8238C4.63677 17.8238 4.35206 18.1085 4.35206 18.4745C4.35206 18.4745 4.35206 18.4745 4.35206 18.5152V19.6947H4.02667V17.5797Z" fill="white"/>
<path d="M7.40256 18.4341C7.56525 18.4341 7.72794 18.4341 7.89063 18.5154V18.3121C7.89063 18.068 7.68727 17.824 7.40256 17.8646C7.40256 17.8646 7.40256 17.8646 7.36188 17.8646C7.11784 17.8646 6.8738 17.9053 6.67044 18.0273L6.58909 17.7833C6.8738 17.6613 7.15852 17.6206 7.44323 17.6206C7.84996 17.6206 8.21602 17.8646 8.25669 18.2714C8.25669 18.2714 8.25669 18.312 8.25669 18.3527V19.3696C8.25669 19.4509 8.33804 19.5729 8.41939 19.5729C8.41939 19.5729 8.50073 19.5729 8.54141 19.5729V19.817C8.50073 19.817 8.41939 19.817 8.33804 19.817C8.13467 19.817 7.93131 19.6949 7.93131 19.4509C7.76861 19.6949 7.4839 19.817 7.19919 19.817C6.83313 19.817 6.50774 19.5729 6.46707 19.2069C6.46707 18.7595 6.83313 18.5154 7.44323 18.5154L7.40256 18.4341ZM7.28054 19.5322C7.60592 19.5322 7.89063 19.2882 7.89063 18.9628C7.89063 18.9628 7.89063 18.9628 7.89063 18.9221V18.7595C7.72794 18.7595 7.60592 18.7188 7.44323 18.7188C7.0365 18.7188 6.79246 18.8815 6.79246 19.1662C6.79246 19.4102 7.0365 19.5729 7.23986 19.5729L7.28054 19.5322Z" fill="white"/>
<path d="M50.028 18.841C50.028 19.1257 49.8654 19.3698 49.5806 19.4105H49.4993C49.2553 19.4105 49.0926 19.2884 49.0926 19.0444C49.0926 18.8004 49.2959 18.6783 49.6213 18.6783C49.9467 18.6783 49.906 18.6783 50.028 18.719V18.841ZM50.028 18.3936C49.8654 18.3936 49.7027 18.353 49.54 18.353C48.9705 18.353 48.6452 18.6377 48.6452 19.0851C48.6452 19.4511 48.9705 19.7765 49.3773 19.7765C49.3773 19.7765 49.418 19.7765 49.4586 19.7765C49.7027 19.7765 49.9467 19.6952 50.1094 19.4918C50.1907 19.6952 50.3534 19.8172 50.5568 19.7765C50.6381 19.7765 50.7195 19.7765 50.8008 19.7358V19.4105C50.7195 19.4105 50.6788 19.4105 50.6381 19.4105C50.5161 19.4105 50.4755 19.3698 50.4755 19.2478V18.3123C50.4755 17.9055 50.1501 17.5395 49.7433 17.4988C49.7027 17.4988 49.662 17.4988 49.6213 17.4988C49.3366 17.4988 49.0519 17.5802 48.8079 17.7022L48.9299 18.0682C49.1332 17.9462 49.3366 17.9055 49.54 17.9055C49.8654 17.9055 50.0687 18.0682 50.0687 18.353V18.4343L50.028 18.3936ZM45.798 19.6952V17.5395H45.3506V19.6952H45.798ZM45.5947 17.2141C45.7574 17.2141 45.8794 17.0921 45.8794 16.9294C45.8794 16.7667 45.7574 16.6447 45.5947 16.6447C45.432 16.6447 45.31 16.7667 45.31 16.9294C45.31 17.0921 45.432 17.2141 45.5947 17.2141ZM51.655 19.3698C51.4923 19.3698 51.4516 19.2884 51.4516 19.1257V16.604H51.0042V19.1664C51.0042 19.4511 51.1669 19.6952 51.4516 19.6952C51.4516 19.6952 51.533 19.6952 51.5736 19.6952C51.655 19.6952 51.7363 19.6952 51.8177 19.6545V19.2884C51.7363 19.2884 51.6957 19.2884 51.655 19.2884M44.2118 17.8649C44.4151 17.8649 44.6185 17.9462 44.7812 18.0682L44.9846 17.7429C44.7812 17.5802 44.4965 17.4581 44.2118 17.4581C43.6017 17.4581 43.1136 17.9055 43.1136 18.5156C43.1136 18.5156 43.1136 18.5563 43.1136 18.597C43.0729 19.1664 43.4797 19.6545 44.0491 19.7358C44.0898 19.7358 44.1304 19.7358 44.1711 19.7358C44.4558 19.7358 44.7405 19.6545 44.9439 19.4511L44.7405 19.1257C44.5778 19.2478 44.4151 19.3291 44.2118 19.3291C43.805 19.3291 43.4797 18.9224 43.5203 18.5156C43.5203 18.1496 43.8457 17.8649 44.1711 17.8242M41.9748 17.4581C41.69 17.4581 41.446 17.5802 41.2833 17.7835V17.4988H40.8766V19.6545H41.324V18.4343C41.324 18.1089 41.5274 17.8649 41.8121 17.8242C41.8121 17.8242 41.8121 17.8242 41.8527 17.8242C42.0968 17.8242 42.3001 17.9869 42.3408 18.2309C42.3408 18.2309 42.3408 18.2716 42.3408 18.3123V19.6545H42.7882V18.2716C42.7882 17.8242 42.5035 17.4581 42.0561 17.4581C42.0561 17.4581 42.0154 17.4581 41.9748 17.4581ZM40.3072 19.6952V17.5395H39.8597V19.6952H40.3072ZM40.0631 17.2141C40.2258 17.2141 40.3478 17.0921 40.3478 16.9294C40.3478 16.7667 40.2258 16.6447 40.0631 16.6447C39.9004 16.6447 39.7784 16.7667 39.7784 16.9294C39.7784 17.0921 39.9004 17.2141 40.0631 17.2141ZM39.209 17.4988C38.9649 17.4988 38.7209 17.6208 38.5989 17.8242V17.5395H38.1921V19.6952H38.6396V18.5156C38.6396 18.1089 38.8429 17.8649 39.209 17.8649C39.2903 17.8649 39.3717 17.8649 39.453 17.8649V17.4988C39.4123 17.4988 39.331 17.4581 39.209 17.4581M36.2805 17.1328H36.8093C37.216 17.1328 37.46 17.3361 37.46 17.7022C37.46 18.0682 37.216 18.2716 36.8093 18.2716H36.2805V17.1328ZM35.8331 16.726V19.6545H36.2805V18.597H36.8906C37.4194 18.6377 37.8668 18.2716 37.9481 17.7429C38.0295 17.2141 37.6227 16.7667 37.094 16.6854C37.0533 16.6854 36.972 16.6854 36.9313 16.6854H35.8738L35.8331 16.726ZM47.3029 19.3291C47.0996 19.3291 46.9369 19.2478 46.7742 19.0851V18.4343C46.7742 18.1496 46.9776 17.8649 47.2623 17.8242C47.2623 17.8242 47.3029 17.8242 47.3436 17.8242C47.7097 17.8242 47.913 18.1089 47.913 18.5156C47.913 18.9224 47.669 19.2884 47.3029 19.2884M47.425 17.4581C47.1403 17.4581 46.8962 17.5802 46.7335 17.7835V17.4988H46.3268V20.5493H46.7742V19.4918C46.9369 19.6138 47.1403 19.6952 47.3843 19.6952C47.9944 19.6952 48.4011 19.2071 48.4011 18.5156C48.4011 17.8242 48.0351 17.4175 47.4656 17.4175" fill="white"/>
<path d="M52.3054 16.5225H52.3868C52.3868 16.5225 52.4681 16.5225 52.4681 16.4411C52.4681 16.4004 52.4681 16.3598 52.3868 16.3598H52.2647V16.5225H52.3054ZM52.1834 16.2784H52.3868C52.4681 16.2784 52.5495 16.3191 52.5495 16.4411C52.5495 16.5225 52.5088 16.5631 52.4274 16.6038L52.5495 16.8072H52.4274L52.3054 16.6445H52.2241V16.8072H52.1021V16.3191L52.1834 16.2784ZM52.3868 16.8885C52.5901 16.8885 52.7528 16.7258 52.7528 16.5225C52.7528 16.3191 52.5901 16.1564 52.3868 16.1564C52.1834 16.1564 52.0207 16.3191 52.0207 16.5225C52.0207 16.7258 52.1427 16.8885 52.3461 16.8885M52.3868 16.1157C52.6308 16.1157 52.8342 16.3191 52.8342 16.5631C52.8342 16.8072 52.6308 17.0105 52.3868 17.0105C52.1427 17.0105 51.9394 16.8072 51.9394 16.5631C51.9394 16.3191 52.1021 16.1157 52.3461 16.1157" fill="white"/>
<path d="M10.7374 17.5392C11.0221 17.5392 11.2662 17.6206 11.4695 17.7832L11.3068 18.0273C11.1442 17.9053 10.9408 17.8239 10.7374 17.8239C10.29 17.8646 9.92396 18.2713 10.0053 18.7187C10.0053 19.1255 10.3714 19.4508 10.7374 19.4508C10.9408 19.4508 11.1442 19.3695 11.3068 19.2475L11.4695 19.4915C11.2662 19.6542 10.9815 19.7356 10.7374 19.7356C10.1273 19.7356 9.63925 19.1661 9.67992 18.556C9.67992 17.9866 10.168 17.5392 10.7374 17.4985" fill="white"/>
<path d="M12.7711 19.4914C13.2185 19.5727 13.6659 19.2473 13.7065 18.7593C13.7472 18.2712 13.4625 17.8644 12.9744 17.8238C12.527 17.7424 12.0796 18.0678 12.0389 18.5559C12.0389 18.5559 12.0389 18.6372 12.0389 18.6779C11.9983 19.0846 12.283 19.4507 12.6897 19.4914C12.6897 19.4914 12.6897 19.4914 12.7304 19.4914M12.7711 17.5391C13.3812 17.5391 13.9099 17.9865 13.9099 18.6372C13.9099 19.2473 13.4625 19.7761 12.8117 19.7761C12.161 19.7761 11.6729 19.3287 11.6729 18.6779C11.6729 18.1085 12.0796 17.6204 12.649 17.5797H12.7304" fill="white"/>
<path d="M14.2761 17.5801H14.5608V17.9461C14.7642 17.6614 15.0489 17.4987 15.3336 17.5394C15.659 17.5394 15.9437 17.7021 16.025 17.9868C16.1877 17.7021 16.4724 17.5394 16.7978 17.5394C17.2046 17.5394 17.5299 17.8241 17.5706 18.2308C17.5706 18.2308 17.5706 18.2715 17.5706 18.3122V19.7357H17.2046V18.3529C17.2046 18.0681 17.0012 17.8648 16.7165 17.8241C16.7165 17.8241 16.7165 17.8241 16.6758 17.8241C16.3504 17.8241 16.0657 18.1088 16.0657 18.4342C16.0657 18.4342 16.0657 18.4342 16.0657 18.4749V19.6951H15.6996V18.3122C15.6996 18.0275 15.4963 17.8241 15.2116 17.7834C15.2116 17.7834 15.2116 17.7834 15.1709 17.7834C14.8455 17.7834 14.5608 18.0681 14.5608 18.3935C14.5608 18.3935 14.5608 18.3935 14.5608 18.4342V19.6544H14.2354V17.5394L14.2761 17.5801Z" fill="white"/>
<path d="M19.1161 17.8238C18.7907 17.8238 18.506 18.1085 18.506 18.4339C18.506 18.4339 18.506 18.4339 18.506 18.4745V18.7999C18.506 19.1253 18.75 19.4507 19.0754 19.4507C19.0754 19.4507 19.0754 19.4507 19.1161 19.4507C19.5635 19.3694 19.8888 18.922 19.7668 18.4745C19.6855 18.1492 19.4414 17.8644 19.1161 17.8238ZM18.1399 17.5797H18.4246V17.9458C18.628 17.7018 18.9127 17.5391 19.1974 17.5391C19.7668 17.5391 20.1329 17.9865 20.1329 18.6372C20.1329 19.288 19.7261 19.7354 19.1974 19.7354C18.9127 19.7354 18.628 19.6134 18.506 19.3694V20.5896H18.1806V17.5797H18.1399Z" fill="white"/>
<path d="M21.2718 19.4914C21.5972 19.4914 21.8819 19.2473 21.8819 18.922C21.8819 18.922 21.8819 18.922 21.8819 18.8813V18.7186C21.7193 18.7186 21.5972 18.6779 21.4345 18.6779C21.0278 18.6779 20.7838 18.8406 20.7838 19.1253C20.7838 19.3694 21.0278 19.5321 21.2312 19.5321M21.4345 18.3932C21.5972 18.3932 21.7599 18.3932 21.9226 18.4339V18.2305C21.9226 17.9865 21.7192 17.7424 21.4345 17.7831C21.4345 17.7831 21.4345 17.7831 21.3939 17.7831C21.1498 17.7831 20.9058 17.8238 20.7024 17.9458L20.6211 17.7018C20.9058 17.5797 21.1905 17.5391 21.4752 17.5391C21.8819 17.5391 22.248 17.7831 22.2887 18.1898C22.2887 18.1898 22.2887 18.2305 22.2887 18.2712V19.288C22.2887 19.3694 22.37 19.4914 22.4514 19.4914C22.4514 19.4914 22.5327 19.4914 22.5734 19.4914V19.7354C22.5327 19.7354 22.4514 19.7354 22.37 19.7354C22.1667 19.7354 21.9633 19.6134 21.9633 19.3694C21.8006 19.6134 21.5159 19.7354 21.2312 19.7354C20.8651 19.7354 20.5397 19.4914 20.4991 19.1253C20.4991 18.6779 20.8651 18.4339 21.4752 18.4339" fill="white"/>
<path d="M24.0376 16.8883C24.1189 16.8883 24.2002 16.8069 24.2409 16.7256L24.4443 16.8069C24.4443 17.0103 24.2409 17.1323 24.0782 17.1323C23.8749 17.1323 23.6715 16.9696 23.5495 16.9696C23.4681 16.9696 23.3868 17.051 23.3461 17.1323L23.1427 17.051C23.1427 16.8476 23.3461 16.7256 23.5088 16.7256C23.7122 16.7256 23.9155 16.8883 24.0376 16.8883ZM22.858 17.5797H23.1427V17.9865C23.3461 17.7017 23.6308 17.5391 23.9562 17.5391C24.3629 17.5391 24.729 17.8238 24.7697 18.2712C24.7697 18.2712 24.7697 18.3118 24.7697 18.3525V19.7354H24.4036V18.3932C24.4036 18.1085 24.2002 17.8644 23.8749 17.8238C23.8749 17.8238 23.8749 17.8238 23.8342 17.8238C23.4681 17.8238 23.1834 18.1085 23.1834 18.4745C23.1834 18.4745 23.1834 18.4745 23.1834 18.5152V19.6947H22.858V17.5797Z" fill="white"/>
<path d="M25.3394 17.5798H25.6648V19.6948H25.3394V17.5798ZM25.3394 17.2951L25.2173 17.0917L25.9495 16.563L26.1122 16.807L25.3394 17.2951Z" fill="white"/>
<path d="M26.9255 19.4918C27.2509 19.4918 27.5356 19.2478 27.5356 18.9224C27.5356 18.9224 27.5356 18.9224 27.5356 18.8817V18.719C27.3729 18.719 27.2509 18.6784 27.0882 18.6784C26.6815 18.6784 26.4375 18.8411 26.4375 19.1258C26.4375 19.3698 26.6815 19.5325 26.8849 19.5325M27.0882 18.3936C27.2509 18.3936 27.4136 18.3936 27.5763 18.4343V18.231C27.5763 17.9869 27.3729 17.7429 27.0882 17.7835C27.0882 17.7835 27.0882 17.7835 27.0475 17.7835C26.8035 17.7835 26.5595 17.8242 26.3561 17.9462L26.2748 17.7022C26.5595 17.5802 26.8442 17.5395 27.1289 17.5395C27.5356 17.4988 27.9017 17.7835 27.9424 18.1903C27.9424 18.1903 27.9424 18.231 27.9424 18.2716V19.2885C27.9424 19.3698 28.0237 19.4918 28.1051 19.4918C28.1051 19.4918 28.1864 19.4918 28.2271 19.4918V19.7359C28.1864 19.7359 28.1051 19.7359 28.0237 19.7359C27.8203 19.7359 27.617 19.6138 27.617 19.3698C27.4543 19.6138 27.1696 19.7359 26.8849 19.7359C26.5188 19.7359 26.1934 19.4918 26.1527 19.1258C26.1527 18.6784 26.5188 18.4343 27.1289 18.4343" fill="white"/>
</svg>
