<svg width="70" height="17" viewBox="0 0 70 17" fill="none" xmlns="http://www.w3.org/2000/svg">
<path d="M6.29597 3.8412C7.62781 5.63082 8.39463 7.82718 8.35427 10.1049C8.35427 10.6743 8.31391 11.2031 8.23319 11.7725H11.9866C12.3094 11.7725 12.5919 11.4878 12.5919 11.1624V0.668692C12.5919 0.343307 12.3094 0.0585938 11.9866 0.0585938C11.9462 0.0585938 11.8655 0.0585938 11.8251 0.0585938C9.60539 0.668692 7.62781 1.97023 6.25562 3.8412H6.29597Z" fill="white"/>
<path d="M4.35874 11.7318C3.9148 8.92537 4.6009 6.07825 6.29596 3.80055C4.92377 1.92958 2.94619 0.628036 0.726457 0.0179374C0.403587 -0.0634091 0.0807175 0.139957 0 0.465343C0 0.506016 0 0.546689 0 0.628035V11.1217C0 11.4471 0.282511 11.7318 0.605381 11.7318H4.35874Z" fill="white"/>
<path d="M6.29595 3.84131C4.60088 6.11901 3.91478 8.96613 4.35873 11.7726H8.23317C8.31388 11.2032 8.35424 10.6744 8.35424 10.105C8.35424 7.86796 7.62779 5.6716 6.29595 3.84131Z" fill="white"/>
<path d="M16.5067 2.17383H19.2915C19.6951 2.17383 20.0986 2.2145 20.5022 2.37719C20.8251 2.49921 21.1076 2.70258 21.3498 2.90595C21.5516 3.14999 21.713 3.39402 21.8341 3.67874C21.9551 3.96345 21.9955 4.28884 21.9955 4.61422C21.9955 4.98028 21.9148 5.34634 21.7937 5.7124C21.6726 5.99711 21.4708 6.28182 21.2287 6.48519C20.9865 6.68855 20.704 6.85125 20.3812 6.97327C20.0583 7.09529 19.7354 7.13596 19.4125 7.13596H18.2421V9.86106H16.5471V2.17383H16.5067ZM19.2107 5.75307C19.4933 5.75307 19.7758 5.67172 19.9776 5.46836C20.1794 5.26499 20.2601 4.98028 20.2601 4.69557C20.2601 4.41085 20.1794 4.12614 19.9776 3.92278C19.7758 3.71941 19.4933 3.59739 19.2107 3.59739H18.2018V5.75307H19.2107Z" fill="white"/>
<path d="M22.722 4.45153H24.296V5.14298C24.4978 4.93961 24.6996 4.77692 24.9014 4.61423C25.1839 4.45153 25.5068 4.32951 25.8296 4.37019C25.9507 4.37019 26.0718 4.37019 26.1929 4.37019C26.3139 4.37019 26.3946 4.41086 26.5157 4.45153L26.2332 5.91577C26.0314 5.8751 25.8296 5.83442 25.6278 5.83442C25.2646 5.83442 24.9417 5.95644 24.6996 6.20048C24.4574 6.48519 24.3363 6.81058 24.3363 7.21731V9.90175H22.6816V4.49221L22.722 4.45153Z" fill="white"/>
<path d="M26.5157 7.13599C26.5157 6.76993 26.5964 6.3632 26.7175 5.99714C26.8386 5.67175 27.0403 5.34637 27.3229 5.06166C27.565 4.77694 27.8879 4.57358 28.2511 4.45156C28.6143 4.28887 29.0179 4.20752 29.4215 4.20752C29.8251 4.20752 30.2287 4.28887 30.5919 4.45156C30.9148 4.57358 31.2377 4.81762 31.4798 5.06166C31.722 5.3057 31.9238 5.63108 32.0852 5.99714C32.3677 6.72926 32.3677 7.54272 32.0852 8.23417C31.8027 8.92561 31.278 9.49504 30.5919 9.77975C30.2287 9.94244 29.8251 10.0238 29.4215 10.0238C29.0179 10.0238 28.6143 9.94244 28.2511 9.77975C27.565 9.49504 27.0403 8.92561 26.7578 8.23417C26.5964 7.86811 26.556 7.50205 26.556 7.09532L26.5157 7.13599ZM29.3812 8.60023C29.7444 8.60023 30.1076 8.43753 30.3498 8.15282C30.4708 8.0308 30.5516 7.86811 30.5919 7.70542C30.713 7.33936 30.713 6.9733 30.5919 6.64791C30.5516 6.48522 30.4708 6.32253 30.3498 6.20051C30.2287 6.07849 30.1076 5.95647 29.9462 5.87512C29.7847 5.79377 29.583 5.7531 29.3812 5.7531C29.1794 5.7531 29.0179 5.7531 28.8161 5.87512C28.6547 5.95647 28.5336 6.07849 28.4125 6.20051C28.2915 6.32253 28.2108 6.48522 28.1704 6.64791C28.0493 7.01397 28.0493 7.38003 28.1704 7.70542C28.2108 7.86811 28.2915 8.0308 28.4125 8.15282C28.5336 8.27484 28.6547 8.39686 28.8161 8.47821C28.9776 8.55955 29.1794 8.60023 29.3812 8.60023Z" fill="white"/>
<path d="M31.2377 2.17383H33.1345L34.991 7.78673L36.8072 2.17383H38.6233L35.8386 9.86106H34.0224L31.1973 2.17383H31.2377Z" fill="white"/>
<path d="M45.3229 9.33231C45.1614 9.53568 44.9193 9.69837 44.6771 9.82039C44.3946 9.94241 44.0717 10.0238 43.7892 10.0238C43.4664 10.0238 43.1435 9.94241 42.861 9.82039C42.5785 9.69837 42.3363 9.49501 42.1345 9.25097C41.9327 9.00693 41.7309 8.68154 41.6502 8.35616C41.5291 7.9901 41.4484 7.58336 41.4484 7.21731C41.4484 6.7699 41.5291 6.36317 41.6906 5.95644C41.852 5.63105 42.0538 5.30567 42.3363 5.06163C42.6188 4.81759 42.9013 4.65489 43.2242 4.53287C43.5471 4.41086 43.8699 4.37018 44.1928 4.37018C44.3946 4.37018 44.5964 4.37018 44.7982 4.41085C44.9596 4.41085 45.0807 4.4922 45.2421 4.53287V2.17383H46.8969V9.86106H45.3632L45.2825 9.33231H45.3229ZM45.2825 5.95644C45.1614 5.87509 45.0404 5.83442 44.9193 5.79374C44.7578 5.79374 44.5964 5.75307 44.435 5.75307C44.0717 5.75307 43.7085 5.87509 43.4664 6.20048C43.2242 6.52586 43.1031 6.89192 43.1031 7.29865C43.1031 7.62404 43.1838 7.9901 43.3856 8.27481C43.5874 8.51885 43.9103 8.68154 44.2332 8.64087C44.3946 8.64087 44.556 8.64087 44.7175 8.55952C44.9596 8.4375 45.1614 8.19346 45.2421 7.90875C45.2421 7.74606 45.2825 7.62404 45.2825 7.46135V5.99711V5.95644Z" fill="white"/>
<path d="M51.0134 9.332C50.8116 9.53537 50.5695 9.73873 50.3273 9.82008C50.0448 9.9421 49.7219 9.98277 49.3991 9.98277C49.1973 9.98277 48.9955 9.98277 48.7937 9.90143C48.5919 9.86075 48.3901 9.73873 48.2287 9.61671C48.0269 9.4947 47.9058 9.29133 47.7847 9.08796C47.6637 8.84392 47.5829 8.55921 47.6233 8.2745C47.6233 7.98979 47.6636 7.70507 47.8251 7.42036C47.9462 7.17632 48.1076 6.97296 48.3497 6.81026C48.5919 6.64757 48.8341 6.52555 49.1166 6.4442C49.4394 6.36286 49.7623 6.32218 50.0852 6.32218C50.287 6.32218 50.4484 6.32218 50.6502 6.32218C50.7713 6.32218 50.8924 6.32218 51.0134 6.32218V6.20016C51.0134 6.07814 51.0134 5.95613 50.9327 5.83411C50.8923 5.75276 50.8116 5.67141 50.6906 5.59007C50.6098 5.50872 50.4888 5.46805 50.3677 5.46805C50.2466 5.46805 50.1255 5.42737 49.9641 5.46805C49.6412 5.46805 49.3587 5.46805 49.0358 5.59007C48.8341 5.67141 48.6323 5.79343 48.4305 5.91545L47.7444 4.89862C47.8654 4.81728 47.9865 4.73593 48.148 4.65458C48.3094 4.57324 48.4708 4.49189 48.6726 4.41054C48.8744 4.3292 49.1166 4.28852 49.3587 4.24785C49.6412 4.20718 49.9237 4.1665 50.2063 4.1665C51.0134 4.1665 51.6188 4.36987 52.0224 4.81728C52.426 5.30535 52.6278 5.95613 52.5874 6.6069V9.73873H51.0538V9.25066L51.0134 9.332ZM51.0134 7.46104C51.0134 7.46104 50.8924 7.46104 50.8116 7.46104C50.6906 7.46104 50.5695 7.46104 50.4484 7.46104C50.1255 7.46104 49.7623 7.46104 49.4798 7.6644C49.278 7.78642 49.1973 7.98979 49.1973 8.23383C49.1973 8.68123 49.4798 8.8846 50.0045 8.8846C50.5291 8.8846 50.2466 8.8846 50.3677 8.80325C50.4888 8.80325 50.6098 8.7219 50.6906 8.64056C50.7713 8.55921 50.852 8.47786 50.9327 8.35584C51.0134 8.23382 51.0134 8.11181 51.0134 7.94911V7.50171V7.46104Z" fill="white"/>
<path d="M56.2197 2.74316H56.7444L59.6099 9.86098H59.0448L58.1166 7.58328H54.8072L53.8789 9.86098H53.3139L56.1794 2.74316H56.2197ZM57.9148 7.0952L56.4619 3.39394L55.009 7.0952H57.9552H57.9148Z" fill="white"/>
<path d="M60.296 2.74316H64.5336V3.23124H60.8206V5.91567H63.7265V6.40375H60.8206V9.86098H60.296V2.74316Z" fill="white"/>
<path d="M64.9373 2.74316H67.1166C67.5202 2.74316 67.8834 2.78384 68.287 2.90586C68.5695 2.9872 68.8117 3.1499 69.0538 3.35326C69.2556 3.51596 69.3767 3.75999 69.4574 4.00403C69.6189 4.53279 69.6189 5.10221 69.4574 5.63096C69.3767 5.875 69.2153 6.11904 69.0538 6.28173C68.8521 6.4851 68.5695 6.64779 68.287 6.72914C67.9238 6.85116 67.5202 6.89183 67.1166 6.89183H65.4619V9.90165H64.9373V2.78384V2.74316ZM67.2781 6.36308C67.7624 6.36308 68.2063 6.24106 68.6099 5.95635C68.9328 5.63096 69.0538 5.22423 69.0538 4.77682C69.0538 4.32942 68.9328 3.92269 68.6099 3.5973C68.2467 3.31259 67.7624 3.1499 67.2781 3.19057H65.4619V6.32241H67.2781V6.36308Z" fill="white"/>
<path d="M16.5067 12.5859H17.1121V14.1315C17.1121 14.2129 17.1121 14.2942 17.1121 14.3756C17.1121 14.4569 17.1525 14.4976 17.1928 14.5383C17.2332 14.5789 17.2735 14.6196 17.3542 14.6603C17.435 14.6603 17.5157 14.7009 17.5964 14.7009C17.6771 14.7009 17.7578 14.7009 17.8386 14.6603C17.9193 14.6603 17.9596 14.5789 18 14.5383C18.0403 14.4976 18.0807 14.4162 18.0807 14.3756C18.0807 14.2942 18.0807 14.2129 18.0807 14.1315V12.5859H18.6861V14.2129C18.6861 14.3756 18.6861 14.4976 18.6054 14.6603C18.565 14.7823 18.4843 14.9043 18.4036 14.9857C18.3229 15.067 18.2018 15.1484 18.0403 15.189C17.8789 15.2297 17.7578 15.2704 17.5964 15.2704C17.435 15.2704 17.2735 15.2704 17.1525 15.189C17.0314 15.1484 16.9103 15.067 16.7892 14.9857C16.7085 14.9043 16.6278 14.7823 16.5874 14.6603C16.5471 14.5383 16.5067 14.3756 16.5067 14.2129V12.5859Z" fill="white"/>
<path d="M19.1704 13.3585H19.6951V13.5619C19.7758 13.4806 19.8565 13.4399 19.9372 13.3992C20.0179 13.3585 20.139 13.3179 20.2601 13.3179C20.4619 13.3179 20.6233 13.3585 20.7848 13.5212C20.9058 13.6839 20.9866 13.8873 20.9866 14.0907V15.2295H20.4215V14.172C20.4215 14.0907 20.4215 14.0093 20.3408 13.928C20.3005 13.8466 20.2197 13.8466 20.139 13.8466C20.0987 13.8466 20.0179 13.8466 19.9776 13.8466C19.9372 13.8466 19.8969 13.8873 19.8565 13.928C19.8565 13.928 19.8162 14.0093 19.7758 14.05C19.7758 14.0907 19.7758 14.172 19.7758 14.2127V15.2295H19.2108V13.3585H19.1704Z" fill="white"/>
<path d="M22.4394 15.0265C22.3587 15.1078 22.278 15.1485 22.1973 15.1892C22.0762 15.2299 21.9955 15.2705 21.8744 15.2299C21.7937 15.2299 21.7533 15.2299 21.6726 15.2299C21.5919 15.2299 21.5515 15.1892 21.4708 15.1485C21.3901 15.1078 21.3498 15.0265 21.3094 14.9858C21.269 14.9045 21.2287 14.8231 21.269 14.7011C21.269 14.6198 21.269 14.4977 21.3498 14.4164C21.3901 14.335 21.4708 14.2537 21.5112 14.213C21.5919 14.1724 21.6726 14.091 21.7937 14.091C21.9148 14.091 22.0359 14.0503 22.1166 14.0503C22.1973 14.0503 22.2376 14.0503 22.3184 14.0503C22.3587 14.0503 22.3991 14.0503 22.4394 14.0503C22.4394 13.969 22.4394 13.9283 22.4394 13.8876C22.4394 13.8876 22.3991 13.8063 22.3587 13.8063C22.3587 13.8063 22.278 13.8063 22.2376 13.7656C22.1973 13.7656 22.1569 13.7656 22.1166 13.7656C21.9955 13.7656 21.9148 13.7656 21.7937 13.8063C21.713 13.8063 21.6323 13.8876 21.5919 13.9283L21.3498 13.5623C21.3498 13.5623 21.4305 13.5216 21.4708 13.4809C21.5112 13.4809 21.5919 13.4402 21.6323 13.3996C21.713 13.3996 21.7937 13.3589 21.8744 13.3589C21.9551 13.3589 22.0762 13.3589 22.1569 13.3589C22.3991 13.3589 22.6009 13.4402 22.7623 13.6029C22.8834 13.7656 22.9641 14.0097 22.9641 14.213V15.3112H22.4394V15.1485V15.0265ZM22.4394 14.3757C22.4394 14.3757 22.4394 14.3757 22.3587 14.3757C22.3587 14.3757 22.278 14.3757 22.2376 14.3757C22.1166 14.3757 21.9955 14.3757 21.9148 14.4571C21.8341 14.4977 21.7937 14.5791 21.8341 14.6604C21.8341 14.8231 21.9148 14.9045 22.1166 14.9045C22.3184 14.9045 22.1973 14.9045 22.2376 14.9045C22.278 14.9045 22.3184 14.9045 22.3587 14.8638L22.4394 14.7824C22.4394 14.7418 22.4394 14.7011 22.4394 14.6604V14.4977V14.3757Z" fill="white"/>
<path d="M25.7489 14.9451C25.6681 15.0264 25.5471 15.1078 25.4663 15.1485C25.3453 15.2298 25.1838 15.2298 25.0224 15.2298C24.9013 15.2298 24.7399 15.2298 24.6188 15.1485C24.4977 15.1078 24.3767 15.0264 24.2959 14.9451C24.2152 14.8637 24.1345 14.7417 24.0941 14.6197C24.0538 14.4977 24.0134 14.3757 24.0134 14.213C24.0134 13.9689 24.0941 13.6842 24.2959 13.5215C24.3767 13.4402 24.4977 13.3588 24.6188 13.3182C24.7399 13.2775 24.861 13.2368 25.0224 13.2368C25.1838 13.2368 25.3049 13.2368 25.4663 13.3182C25.5874 13.3588 25.7085 13.4402 25.7892 13.5215L25.4663 13.8876C25.426 13.8469 25.3856 13.8062 25.3049 13.7656C25.2242 13.7656 25.1435 13.7249 25.0628 13.7249C24.982 13.7249 24.9417 13.7249 24.861 13.7656C24.8206 13.7656 24.7802 13.8469 24.7399 13.8876C24.7399 13.9283 24.6592 13.9689 24.6592 14.0503C24.6592 14.091 24.6592 14.1723 24.6592 14.2536C24.6592 14.335 24.6592 14.3757 24.6592 14.4163C24.6592 14.457 24.6995 14.5384 24.7399 14.579C24.7399 14.6197 24.8206 14.6604 24.861 14.7011C24.9013 14.7011 24.982 14.7417 25.0628 14.7417C25.1435 14.7417 25.2242 14.7417 25.3049 14.7011C25.3453 14.7011 25.426 14.6197 25.4663 14.579L25.7892 14.9451H25.7489Z" fill="white"/>
<path d="M25.8699 14.294C25.8699 14.172 25.8699 14.05 25.9507 13.928C25.991 13.8059 26.0717 13.6839 26.1524 13.6026C26.2332 13.5212 26.3542 13.4399 26.4753 13.3992C26.5964 13.3585 26.7578 13.3179 26.8789 13.3179C27 13.3179 27.1614 13.3179 27.2825 13.3992C27.4036 13.4399 27.5246 13.5212 27.6054 13.6026C27.6861 13.6839 27.7668 13.8059 27.8072 13.928C27.8879 14.172 27.8879 14.4567 27.8072 14.7008C27.7264 14.9448 27.5246 15.1482 27.2825 15.2295C27.1614 15.2702 27 15.3109 26.8789 15.3109C26.7578 15.3109 26.5964 15.3109 26.4753 15.2295C26.2332 15.1482 26.0717 14.9448 25.9507 14.7008C25.9103 14.5787 25.8699 14.4567 25.8699 14.3347V14.294ZM26.8789 14.7821C26.9596 14.7821 27 14.7821 27.0807 14.7414C27.1211 14.7414 27.2018 14.6601 27.2018 14.6194C27.2018 14.5787 27.2825 14.4974 27.2825 14.4567C27.2825 14.3347 27.2825 14.2127 27.2825 14.0907C27.2825 14.05 27.2421 13.9686 27.2018 13.928C27.2018 13.8873 27.1211 13.8466 27.0807 13.8059C27.0403 13.8059 26.9596 13.7653 26.8789 13.7653C26.7982 13.7653 26.7578 13.7653 26.6771 13.8059C26.6368 13.8059 26.556 13.8873 26.556 13.928C26.556 13.9686 26.4753 14.0093 26.4753 14.0907C26.4753 14.2127 26.4753 14.3347 26.4753 14.4567C26.4753 14.4974 26.5157 14.5787 26.556 14.6194C26.556 14.6601 26.6368 14.7008 26.6771 14.7414C26.7175 14.7414 26.7982 14.7821 26.8789 14.7821Z" fill="white"/>
<path d="M28.1704 13.3587H28.6951V13.5621C28.7758 13.4807 28.8565 13.44 28.9372 13.3994C29.0179 13.3587 29.139 13.318 29.2601 13.318C29.3408 13.318 29.3812 13.318 29.4619 13.318C29.5022 13.318 29.583 13.318 29.6233 13.3994C29.6637 13.3994 29.704 13.44 29.7444 13.4807C29.7444 13.4807 29.7848 13.5214 29.8251 13.5621C29.9058 13.4807 29.9866 13.3994 30.1076 13.3587C30.2287 13.318 30.3498 13.2773 30.4305 13.2773C30.6323 13.2773 30.8341 13.318 30.9552 13.4807C31.0762 13.6434 31.157 13.8468 31.157 14.0501V15.189H30.5919V14.1315C30.5919 14.0501 30.5919 13.9688 30.5112 13.8874C30.4709 13.8061 30.3901 13.8061 30.3094 13.8061C30.2287 13.8061 30.1076 13.8061 30.0269 13.9281C29.9462 14.0095 29.9058 14.1315 29.9462 14.2128V15.2297H29.3812V14.1722C29.3812 14.0908 29.3812 14.0095 29.3005 13.9281C29.2601 13.8468 29.1794 13.8468 29.0987 13.8468C29.0179 13.8468 28.8969 13.8468 28.8565 13.9688C28.7758 14.0501 28.7354 14.1722 28.7354 14.2535V15.2703H28.1704V13.3994V13.3587Z" fill="white"/>
<path d="M31.5605 13.3589H32.0852C32.0852 13.3589 32.0852 13.4402 32.0852 13.4809C32.0852 13.4809 32.0852 13.5623 32.0852 13.6029C32.1659 13.5216 32.2062 13.4809 32.3273 13.4402C32.408 13.4402 32.5291 13.3589 32.6098 13.3589C32.852 13.3589 33.0538 13.4402 33.2152 13.6436C33.2959 13.7249 33.3363 13.847 33.3766 13.969C33.3766 14.091 33.417 14.213 33.417 14.335C33.417 14.4977 33.417 14.6604 33.3363 14.7824C33.2959 14.9045 33.2152 15.0265 33.0941 15.1078C33.0134 15.1892 32.8923 15.2705 32.7713 15.2705C32.6502 15.2705 32.5291 15.3112 32.4484 15.3112C32.3677 15.3112 32.287 15.3112 32.2466 15.3112C32.2062 15.3112 32.1255 15.3112 32.0852 15.2705V16.084H31.5201V13.4402L31.5605 13.3589ZM32.1255 14.7011C32.2062 14.7418 32.3273 14.7824 32.4484 14.7824C32.5695 14.7824 32.6905 14.7418 32.7713 14.6604C32.852 14.5384 32.8923 14.4164 32.8923 14.2944C32.8923 14.2537 32.8923 14.1723 32.8923 14.1317C32.8923 14.091 32.8923 14.0097 32.8116 13.969C32.8116 13.9283 32.7309 13.8876 32.6905 13.847C32.6502 13.847 32.5695 13.8063 32.5291 13.847C32.4888 13.847 32.408 13.847 32.3677 13.847C32.3273 13.847 32.287 13.8876 32.2466 13.9283C32.2062 13.969 32.2062 14.0097 32.1659 14.0503C32.1659 14.091 32.1659 14.1317 32.1659 14.213V14.7011H32.1255Z" fill="white"/>
<path d="M34.8699 15.0265C34.7892 15.1078 34.7085 15.1485 34.6278 15.1892C34.5067 15.2299 34.426 15.2705 34.3049 15.2299C34.2242 15.2299 34.1838 15.2299 34.1031 15.2299C34.0224 15.2299 33.982 15.1892 33.9013 15.1485C33.8206 15.1078 33.7803 15.0265 33.7399 14.9858C33.6995 14.9045 33.6592 14.8231 33.6592 14.7011C33.6592 14.6198 33.6592 14.4977 33.7399 14.4164C33.7803 14.335 33.861 14.2537 33.9013 14.213C33.982 14.1724 34.0628 14.091 34.1838 14.091C34.3049 14.091 34.426 14.0503 34.5067 14.0503C34.5874 14.0503 34.6278 14.0503 34.7085 14.0503C34.7489 14.0503 34.7892 14.0503 34.8296 14.0503C34.8296 13.969 34.8296 13.9283 34.8296 13.8876C34.8296 13.8876 34.7892 13.8063 34.7489 13.8063C34.7489 13.8063 34.6681 13.8063 34.6278 13.7656C34.5874 13.7656 34.5471 13.7656 34.5067 13.7656C34.3856 13.7656 34.3049 13.7656 34.1838 13.8063C34.1031 13.8063 34.0224 13.8876 33.9821 13.9283L33.7399 13.5623C33.7399 13.5623 33.8206 13.5216 33.861 13.4809C33.9013 13.4809 33.9821 13.4402 34.0224 13.3996C34.1031 13.3996 34.1838 13.3589 34.2646 13.3589C34.3453 13.3589 34.4664 13.3589 34.5471 13.3589C34.7892 13.3589 34.991 13.4402 35.1525 13.6029C35.2735 13.7656 35.3542 14.0097 35.3542 14.213V15.3112H34.8296V15.1485L34.8699 15.0265ZM34.8699 14.3757C34.8699 14.3757 34.8699 14.3757 34.7892 14.3757C34.7892 14.3757 34.7085 14.3757 34.6681 14.3757C34.5471 14.3757 34.426 14.3757 34.3453 14.4571C34.2646 14.4977 34.2646 14.5791 34.2646 14.6604C34.2646 14.8231 34.3453 14.9045 34.5471 14.9045C34.7489 14.9045 34.6278 14.9045 34.6681 14.9045C34.7085 14.9045 34.7489 14.9045 34.7892 14.8638L34.8699 14.7824C34.8699 14.7418 34.8699 14.7011 34.8699 14.6604V14.4977V14.3757Z" fill="white"/>
<path d="M35.8386 13.3587H36.3632V13.562C36.4439 13.4807 36.5247 13.44 36.6054 13.3994C36.6861 13.3587 36.8072 13.318 36.9282 13.318C37.13 13.318 37.2915 13.3587 37.4529 13.5214C37.574 13.6841 37.6547 13.8874 37.6547 14.0908V15.2296H37.0897V14.1721C37.0897 14.0908 37.0897 14.0094 37.009 13.9281C36.9686 13.8468 36.8879 13.8468 36.8072 13.8468C36.7668 13.8468 36.6861 13.8468 36.6457 13.8468C36.6054 13.8468 36.565 13.8874 36.5247 13.9281C36.5247 13.9281 36.4843 14.0094 36.4439 14.0501C36.4439 14.0908 36.4439 14.1721 36.4439 14.2128V15.2296H35.8789V13.3587H35.8386ZM35.9193 12.7486C36 12.6672 36.0404 12.6266 36.1211 12.5859C36.2018 12.5452 36.3229 12.5045 36.4036 12.5045C36.4439 12.5045 36.4843 12.5045 36.5247 12.5045C36.565 12.5045 36.6054 12.5045 36.6457 12.5452C36.6457 12.5452 36.7265 12.5859 36.7668 12.5859C36.8072 12.5859 36.8475 12.5859 36.8879 12.5859C36.9686 12.5859 37.0493 12.5859 37.0897 12.5452C37.13 12.5452 37.2108 12.4639 37.2511 12.4639L37.4529 12.7893C37.4126 12.8706 37.3318 12.9113 37.2511 12.9519C37.1704 12.9926 37.0493 13.0333 36.9686 13.0333C36.9282 13.0333 36.8879 13.0333 36.8072 13.0333C36.7668 13.0333 36.7265 13.0333 36.6861 12.9926C36.6861 12.9926 36.6054 12.9519 36.565 12.9519C36.5247 12.9519 36.4843 12.9519 36.4439 12.9519C36.3632 12.9519 36.3229 12.9519 36.2421 12.9926C36.2018 12.9926 36.1211 13.0333 36.0807 13.074L35.8789 12.7486H35.9193Z" fill="white"/>
<path d="M38.0583 13.3585H38.6233V15.2295H38.0583V13.3585ZM38.3004 12.5044H38.8655L38.5426 13.0738H38.139L38.3408 12.5044H38.3004Z" fill="white"/>
<path d="M40.1166 15.0265C40.0358 15.1078 39.9551 15.1485 39.8744 15.1892C39.7533 15.2299 39.6726 15.2705 39.5515 15.2299C39.4708 15.2299 39.4305 15.2299 39.3497 15.2299C39.269 15.2299 39.2287 15.1892 39.148 15.1485C39.0672 15.1078 39.0269 15.0265 38.9865 14.9858C38.9462 14.9045 38.9058 14.8231 38.9462 14.7011C38.9462 14.6198 38.9462 14.4977 39.0269 14.4164C39.0672 14.335 39.148 14.2537 39.1883 14.213C39.269 14.1724 39.3497 14.091 39.4708 14.091C39.5919 14.091 39.713 14.0503 39.7937 14.0503C39.8744 14.0503 39.9148 14.0503 39.9955 14.0503C40.0358 14.0503 40.0762 14.0503 40.1166 14.0503C40.1166 13.969 40.1166 13.9283 40.1166 13.8876C40.1166 13.8876 40.0762 13.8063 40.0358 13.8063C40.0358 13.8063 39.9551 13.8063 39.9148 13.7656C39.8744 13.7656 39.8341 13.7656 39.7937 13.7656C39.6726 13.7656 39.5919 13.7656 39.4708 13.8063C39.3901 13.8063 39.3094 13.8876 39.269 13.9283L39.0269 13.5623C39.0269 13.5623 39.1076 13.5216 39.148 13.4809C39.1883 13.4809 39.269 13.4402 39.3094 13.3996C39.3901 13.3996 39.4708 13.3589 39.5515 13.3589C39.6323 13.3589 39.7533 13.3589 39.8341 13.3589C40.0762 13.3589 40.278 13.4402 40.4394 13.6029C40.5605 13.7656 40.6412 14.0097 40.6412 14.213V15.3112H40.1166V15.1485V15.0265ZM40.1166 14.3757C40.1166 14.3757 40.1166 14.3757 40.0358 14.3757C40.0358 14.3757 39.9551 14.3757 39.9148 14.3757C39.7937 14.3757 39.6726 14.3757 39.5919 14.4571C39.5112 14.4977 39.4708 14.5791 39.5112 14.6604C39.5112 14.8231 39.5919 14.9045 39.7937 14.9045C39.9955 14.9045 39.8744 14.9045 39.9148 14.9045C39.9551 14.9045 39.9955 14.9045 40.0358 14.8638L40.1166 14.7824C40.1166 14.7418 40.1166 14.7011 40.1166 14.6604V14.4977V14.3757Z" fill="white"/>
<path d="M51.2152 13.1146C51.0538 13.1146 50.8924 12.9519 50.8924 12.7893C50.8924 12.6266 51.0538 12.4639 51.2152 12.4639C51.3767 12.4639 51.5381 12.5859 51.5381 12.7893C51.5381 12.9926 51.3767 13.1146 51.2152 13.1146ZM42.1749 15.2296H42.7399L42.8206 13.5214L43.3856 14.5382H43.7085L44.2735 13.5214L44.3542 15.2703H44.9596L44.8385 12.6266H44.2735L43.5874 13.8874L42.9013 12.6266H42.3363L42.2152 15.2703L42.1749 15.2296ZM46.7354 14.6602C46.6547 14.7009 46.6143 14.7416 46.5336 14.7822C46.4125 14.8229 46.2915 14.8636 46.1704 14.8636C46.0493 14.8636 45.9282 14.8636 45.8072 14.7416C45.7264 14.6602 45.6861 14.5789 45.6861 14.4569H47.0179V14.3755C47.0179 14.2128 47.0179 14.0908 46.9776 13.9281C46.9776 13.8061 46.8968 13.6841 46.8161 13.6027C46.7354 13.5214 46.6547 13.44 46.5336 13.3994C46.4125 13.3587 46.2915 13.318 46.13 13.318C46.0089 13.318 45.8475 13.318 45.7264 13.3994C45.6054 13.44 45.5246 13.5214 45.4439 13.6027C45.3632 13.6841 45.2825 13.8061 45.2421 13.9281C45.2018 14.0501 45.1614 14.1721 45.1614 14.2942C45.1614 14.4162 45.1614 14.5789 45.2421 14.7009C45.2825 14.8229 45.3632 14.9449 45.4439 15.0263C45.5246 15.1076 45.6457 15.189 45.7668 15.2296C45.8879 15.2703 46.0493 15.311 46.2107 15.311C46.3318 15.311 46.4125 15.311 46.5336 15.311C46.6143 15.311 46.695 15.2703 46.7758 15.2296C46.8161 15.2296 46.8968 15.189 46.9372 15.1483C46.9776 15.1483 47.0179 15.1076 47.0179 15.067L46.7758 14.7009L46.7354 14.6602ZM45.6861 14.0908C45.6861 14.0501 45.6861 14.0094 45.6861 13.9688C45.6861 13.9281 45.7264 13.8874 45.7668 13.8468C45.7668 13.8468 45.8475 13.7654 45.8879 13.7654C45.9282 13.7654 46.0089 13.7654 46.0493 13.7654C46.0897 13.7654 46.1704 13.7654 46.2107 13.7654C46.2511 13.7654 46.2915 13.8061 46.3318 13.8468C46.3318 13.8468 46.3722 13.9281 46.4125 13.9688C46.4125 13.9688 46.4125 14.0501 46.4125 14.0908H45.6457H45.6861ZM48.9551 15.2296H50.6906V14.7416H49.5605V12.5859H48.9551V15.2296ZM50.9327 15.2296H51.4977V13.3587H50.9327V15.2296ZM53.435 12.6672C53.3542 12.5859 53.2735 12.5452 53.1524 12.5045C53.0717 12.5045 52.9507 12.4639 52.8296 12.4639C52.7489 12.4639 52.6278 12.4639 52.5471 12.5045C52.4663 12.5452 52.3856 12.5859 52.3049 12.6266C52.2242 12.7079 52.1838 12.7893 52.1435 12.8706C52.1031 12.9926 52.0628 13.1146 52.0628 13.196V13.2773H51.7802V13.7247H52.0628V15.1483H52.6278V13.7247H53.0717V13.2773H52.6278V13.1553C52.6278 13.074 52.6278 12.9926 52.7085 12.9519C52.7489 12.9113 52.8296 12.8706 52.9103 12.8706C52.9507 12.8706 52.991 12.8706 53.0717 12.8706C53.1121 12.8706 53.1524 12.8706 53.1928 12.9519L53.435 12.5859V12.6672ZM48.5112 14.7009C48.5112 14.7009 48.4305 14.7416 48.3901 14.7822C48.3498 14.7822 48.3094 14.7822 48.2287 14.7822C48.148 14.7822 48.1076 14.7822 48.0672 14.7009C48.0672 14.6195 48.0269 14.5789 48.0269 14.4975V13.7654H48.5112V13.318H48.0269V12.8299H47.4619V13.318H47.1794V13.7654H47.4619V14.4569C47.4619 14.5789 47.4619 14.6602 47.4619 14.7822C47.4619 14.8636 47.5426 14.9449 47.5829 15.0263C47.6233 15.1076 47.704 15.1483 47.7847 15.189C47.9058 15.2296 47.9865 15.2296 48.1076 15.2296C48.3094 15.2296 48.5112 15.1483 48.6726 15.0263L48.4305 14.6602L48.5112 14.7009ZM54.8072 14.6602C54.7264 14.7009 54.6861 14.7416 54.6054 14.7822C54.4843 14.8229 54.3632 14.8636 54.2421 14.8636C54.1211 14.8636 54 14.8636 53.8789 14.7416C53.7982 14.6602 53.7578 14.5789 53.7578 14.4569H55.0897V14.3755C55.0897 14.2128 55.0897 14.0908 55.0493 13.9281C55.0493 13.8061 54.9686 13.6841 54.8879 13.6027C54.8072 13.5214 54.7264 13.44 54.6054 13.3994C54.4843 13.3587 54.3632 13.318 54.2018 13.318C54.0807 13.318 53.9193 13.318 53.7982 13.3994C53.6771 13.44 53.5964 13.5214 53.5157 13.6027C53.435 13.6841 53.3542 13.8061 53.3139 13.9281C53.2735 14.0501 53.2332 14.1721 53.2332 14.2942C53.2332 14.4162 53.2332 14.5789 53.3139 14.7009C53.3542 14.8229 53.435 14.9449 53.5157 15.0263C53.5964 15.1076 53.7175 15.189 53.8385 15.2296C53.9596 15.2703 54.1211 15.311 54.2825 15.311C54.4036 15.311 54.4843 15.311 54.6054 15.311C54.6861 15.311 54.7668 15.2703 54.8475 15.2296C54.8879 15.2296 54.9686 15.189 55.0089 15.1483C55.0493 15.1483 55.0897 15.1076 55.0897 15.067L54.8475 14.7009L54.8072 14.6602ZM53.7578 14.0908C53.7578 14.0501 53.7578 14.0094 53.7578 13.9688C53.7578 13.9281 53.7982 13.8874 53.8385 13.8468C53.8385 13.8468 53.9193 13.7654 53.9596 13.7654C54 13.7654 54.0807 13.7654 54.1211 13.7654C54.1614 13.7654 54.2421 13.7654 54.2825 13.7654C54.3228 13.7654 54.3632 13.8061 54.4036 13.8468C54.4036 13.8468 54.4439 13.9281 54.4843 13.9688C54.4843 13.9688 54.4843 14.0501 54.4843 14.0908H53.7175H53.7578Z" fill="white"/>
<path d="M40.3184 3.71918C39.8341 3.92254 39.3094 3.71918 39.1076 3.19043C39.0269 2.94639 39.0269 2.70235 39.1076 2.45831C39.2287 2.1736 39.4708 1.97023 39.7937 1.88888C40.278 1.76686 40.8027 2.13292 40.8834 2.621C40.8834 2.74302 40.8834 2.86504 40.8834 2.98706C40.843 3.31245 40.6009 3.55649 40.3184 3.6785V3.71918Z" fill="white"/>
<path d="M39.148 9.86085H40.8027V4.41064H39.148V9.86085Z" fill="white"/>
</svg>
