<svg width="68" height="12" viewBox="0 0 68 12" fill="none" xmlns="http://www.w3.org/2000/svg">
<path d="M0 11.2258H11.2601V0H0V11.2258ZM5.89238 2.19635L6.01345 2.72511L7.95067 2.96914L8.47534 4.79944H9.08072C9.08072 4.84011 9.32287 5.57223 9.32287 5.57223L7.99103 5.45021L7.46637 3.57924L6.25561 3.45722L6.65919 4.92146L5.85202 4.84011L5.16592 2.07433L5.93274 2.19635H5.89238ZM1.61435 4.14867L2.34081 4.23001L1.97758 2.23703L4.15695 2.52174L4.03587 1.95231L4.80269 2.03366L5.48879 4.79944L4.68161 4.71809L4.35875 3.21318L2.98655 3.05049L3.39013 5.08415L1.73543 4.96213L1.61435 4.14867ZM5.73094 9.23282L5.56951 8.5007L3.14798 8.41936L2.7444 6.10098H1.97758C1.97758 6.06031 1.8565 5.20617 1.8565 5.20617L3.51121 5.32819L3.95516 7.56522L5.40807 7.64656L5.04484 5.93829H5.89238C5.89238 5.97896 6.65919 9.23282 6.65919 9.23282H5.7713H5.73094ZM7.74888 9.27349H6.90135L6.09417 6.01963H6.90135C6.90135 6.06031 7.34529 7.72791 7.34529 7.72791H8.63677C8.63677 7.76858 8.07175 5.73492 8.07175 5.73492L9.44395 5.81627L9.6861 6.54839H9.08072L9.72646 8.62272H7.6278C7.6278 8.58205 7.78924 9.27349 7.78924 9.27349H7.74888Z" fill="white"/>
<path d="M13.6008 3.45703H15.6591V6.62954H19.7757V3.45703H21.834V11.2663H19.7757V7.84974H15.6591V11.2663H13.6008V3.45703Z" fill="white"/>
<path d="M27.1614 5.04329L25.7892 8.25647H28.5336L27.1614 5.04329ZM26.1928 3.45703H28.5739L32.6905 11.2256H30.3497L29.4618 9.43599H25.1838L24.2555 11.2256H22.0762L26.1928 3.45703Z" fill="white"/>
<path d="M35.2735 10.0054H36.2824C37.251 10.0054 38.4618 9.84273 38.4618 8.90724C38.4618 7.97176 37.3721 7.72772 36.2824 7.72772H35.2735V9.96474V10.0054ZM35.2735 6.62954H36.121C37.0089 6.62954 38.0986 6.50752 38.0986 5.69406C38.0986 4.88059 37.0089 4.7179 36.0806 4.7179H35.2735V6.62954ZM33.1748 3.45703H36.8475C38.1793 3.45703 40.2376 3.74174 40.2376 5.45002C40.2376 7.15829 39.3901 7.03627 38.1793 7.19897C39.5918 7.32099 40.6008 8.0531 40.6008 8.98859C40.6008 10.9409 38.2196 11.2256 36.9282 11.2256H33.2555V3.45703H33.1748Z" fill="white"/>
<path d="M43.5066 3.45703H41.408V11.2256H43.5066V3.45703Z" fill="white"/>
<path d="M47.4216 4.7179H44.4351V3.45703H52.5068V4.7179H49.5203V11.2663H47.4216V4.7179Z" fill="white"/>
<path d="M55.6547 5.04329L54.1614 8.25647H57.1883L55.695 5.04329H55.6547ZM54.5246 3.45703H56.8655L60.9417 11.2256H58.6412L57.7533 9.43599H53.556L52.6681 11.2256H50.4888L54.565 3.45703H54.5246Z" fill="white"/>
<path d="M61.9104 4.7179H58.9238V3.45703H67.0359L66.027 4.7179H64.0494V11.2663H61.9104V4.7179Z" fill="white"/>
<path d="M15.3768 0.284567L14.4889 1.9115H16.2243L15.3364 0.284567H15.3768ZM15.175 0.0405273H15.6189L17.2333 3.00967H16.8297L16.3857 2.19621H14.3678L13.9239 3.00967H13.5203L15.175 0.0405273Z" fill="white"/>
<path d="M17.3945 0.0405273H19.2914V0.284567H17.7981V1.34207H19.2107V1.58611H17.7981V3.00967H17.3945V0.0405273Z" fill="white"/>
<path d="M20.0987 1.46409H20.3812C20.9865 1.46409 21.5516 1.42342 21.5516 0.894665C21.5516 0.365913 21.2691 0.325239 20.7444 0.325239H20.0987V1.50476V1.46409ZM19.6951 0.0405273H20.6637C21.3901 0.0405273 21.9148 0.32524 21.9148 0.894665C21.9148 1.46409 21.3498 1.7488 20.6233 1.7488H20.0987V3.05034H19.6951V0.0812007V0.0405273Z" fill="white"/>
</svg>
