<svg width="54" height="27" viewBox="0 0 54 27" fill="none" xmlns="http://www.w3.org/2000/svg">
<g clip-path="url(#clip0_973_57316)">
<path d="M15.4616 0.665064L15.4596 0.663939C13.2907 -0.557666 10.5422 0.210256 9.32056 2.37914L0.581983 17.8939C-0.639622 20.0628 0.128301 22.8114 2.29719 24.033L2.29918 24.0341C4.46807 25.2557 7.21661 24.4878 8.43821 22.3189L17.1768 6.80409C18.3984 4.63521 17.6305 1.88667 15.4616 0.665064Z" fill="white"/>
<path d="M24.4802 24.0614L24.4822 24.0602C26.6379 22.8156 27.3765 20.0591 26.1319 17.9033L17.2286 2.48241C15.984 0.32665 13.2275 -0.411967 11.0717 0.83266L11.0697 0.833806C8.91396 2.07843 8.17535 4.83499 9.41997 6.99075L18.3232 22.4116C19.5679 24.5674 22.3244 25.306 24.4802 24.0614Z" fill="white" stroke="#067CC0" stroke-width="0.458281" stroke-miterlimit="10"/>
<path d="M37.6984 15.3937L37.7328 15.4739C37.8061 15.6458 37.9756 15.7558 38.1613 15.7558H38.4293C38.7524 15.7558 38.9701 15.4235 38.8418 15.1256L38.7662 14.9538L35.0954 6.58785C35.0289 6.41599 34.9235 6.2808 34.7814 6.18914C34.5088 6.01041 34.1421 6.00125 33.8465 6.18914C33.6999 6.2808 33.5968 6.4137 33.5395 6.5741L29.8664 14.9836L29.8091 15.1073C29.6693 15.4098 29.8916 15.758 30.2261 15.7558H30.4369C30.634 15.7558 30.8104 15.6366 30.8883 15.4556L31.8736 13.1596H36.7268L37.6984 15.3937ZM32.3388 12.0918L34.3002 7.56857L36.264 12.0918H32.3388Z" fill="white"/>
<path d="M45.4338 6.04004H40.3537C40.0352 6.04004 39.8313 6.23939 39.8313 6.54873V15.2423C39.8313 15.5517 40.0375 15.751 40.3537 15.751H40.5279C40.8372 15.751 41.0366 15.5517 41.0366 15.2423V12.3208H44.9136C45.2321 12.3208 45.4361 12.1146 45.4361 11.7983V11.6654C45.4361 11.3469 45.2298 11.143 44.9136 11.143H41.0366V7.22011H45.4338C45.7431 7.22011 45.9425 7.01389 45.9425 6.69767V6.55102C45.9425 6.24627 45.7385 6.04233 45.4338 6.04233V6.04004Z" fill="white"/>
<path d="M50.2347 6.04004H47.7417C47.4232 6.04004 47.2192 6.23939 47.2192 6.54873V15.2423C47.2192 15.5517 47.4255 15.751 47.7417 15.751H47.9158C48.2252 15.751 48.4245 15.5517 48.4245 15.2423V12.2864H50.2347C52.2053 12.2864 53.4771 11.0605 53.4771 9.16322C53.4771 7.26594 52.203 6.04004 50.2347 6.04004ZM52.258 9.17697C52.258 10.4006 51.456 11.1613 50.1683 11.1613H48.4245V7.18116H50.1683C51.4583 7.18116 52.258 7.94649 52.258 9.17697Z" fill="white"/>
<path d="M30.2635 3.76404H29.9094L30.9337 0.974357H31.2824L32.3067 3.76404H31.9526L31.1189 1.41569H31.0971L30.2635 3.76404ZM30.3943 2.67432H31.8218V2.97399H30.3943V2.67432ZM34.2669 1.67178C34.2505 1.53375 34.1842 1.42659 34.068 1.35031C33.9518 1.27403 33.8092 1.23589 33.6403 1.23589C33.5168 1.23589 33.4087 1.25587 33.3161 1.29582C33.2244 1.33578 33.1526 1.39072 33.1009 1.46064C33.05 1.53057 33.0246 1.61003 33.0246 1.69902C33.0246 1.77348 33.0423 1.83751 33.0777 1.89108C33.114 1.94375 33.1603 1.9878 33.2167 2.02321C33.273 2.05772 33.332 2.08632 33.3937 2.10903C33.4555 2.13082 33.5122 2.14853 33.564 2.16215L33.8473 2.23843C33.92 2.2575 34.0008 2.28384 34.0898 2.31744C34.1797 2.35104 34.2655 2.39689 34.3472 2.45501C34.4299 2.51222 34.498 2.58578 34.5516 2.67568C34.6051 2.76558 34.6319 2.87592 34.6319 3.00668C34.6319 3.15743 34.5924 3.29364 34.5134 3.41533C34.4353 3.53701 34.3209 3.63373 34.1702 3.70547C34.0203 3.77721 33.8382 3.81308 33.6239 3.81308C33.4242 3.81308 33.2512 3.78084 33.105 3.71636C32.9597 3.65189 32.8452 3.56199 32.7617 3.44666C32.6791 3.33133 32.6323 3.19738 32.6214 3.04482H32.9701C32.9792 3.15016 33.0146 3.23734 33.0764 3.30636C33.139 3.37446 33.218 3.42532 33.3134 3.45892C33.4096 3.49161 33.5131 3.50795 33.6239 3.50795C33.7529 3.50795 33.8687 3.48707 33.9713 3.4453C34.0739 3.40261 34.1552 3.34359 34.2151 3.26822C34.275 3.19194 34.305 3.10294 34.305 3.00123C34.305 2.90861 34.2791 2.83324 34.2274 2.77512C34.1756 2.717 34.1075 2.66978 34.023 2.63345C33.9386 2.59713 33.8473 2.56535 33.7493 2.5381L33.406 2.44003C33.188 2.37737 33.0155 2.28792 32.8884 2.17169C32.7612 2.05545 32.6977 1.90334 32.6977 1.71537C32.6977 1.55917 32.7399 1.42296 32.8244 1.30672C32.9097 1.18958 33.0241 1.09877 33.1676 1.03429C33.312 0.968908 33.4732 0.936216 33.6512 0.936216C33.831 0.936216 33.9908 0.968454 34.1307 1.03293C34.2705 1.0965 34.3813 1.18367 34.463 1.29446C34.5457 1.40525 34.5892 1.53102 34.5938 1.67178H34.2669ZM37.5411 2.3692C37.5411 2.66342 37.488 2.91769 37.3818 3.132C37.2755 3.34631 37.1298 3.51159 36.9445 3.62782C36.7593 3.74406 36.5477 3.80218 36.3098 3.80218C36.0718 3.80218 35.8602 3.74406 35.675 3.62782C35.4897 3.51159 35.344 3.34631 35.2377 3.132C35.1315 2.91769 35.0784 2.66342 35.0784 2.3692C35.0784 2.07497 35.1315 1.82071 35.2377 1.60639C35.344 1.39208 35.4897 1.22681 35.675 1.11057C35.8602 0.994335 36.0718 0.936216 36.3098 0.936216C36.5477 0.936216 36.7593 0.994335 36.9445 1.11057C37.1298 1.22681 37.2755 1.39208 37.3818 1.60639C37.488 1.82071 37.5411 2.07497 37.5411 2.3692ZM37.2142 2.3692C37.2142 2.12764 37.1738 1.92377 37.093 1.75759C37.0131 1.59141 36.9046 1.46564 36.7674 1.38028C36.6312 1.29492 36.4787 1.25224 36.3098 1.25224C36.1408 1.25224 35.9878 1.29492 35.8507 1.38028C35.7145 1.46564 35.606 1.59141 35.5252 1.75759C35.4452 1.92377 35.4053 2.12764 35.4053 2.3692C35.4053 2.61075 35.4452 2.81462 35.5252 2.9808C35.606 3.14698 35.7145 3.27276 35.8507 3.35812C35.9878 3.44348 36.1408 3.48616 36.3098 3.48616C36.4787 3.48616 36.6312 3.44348 36.7674 3.35812C36.9046 3.27276 37.0131 3.14698 37.093 2.9808C37.1738 2.81462 37.2142 2.61075 37.2142 2.3692ZM40.354 1.84613H40.0162C39.9962 1.74897 39.9612 1.6636 39.9113 1.59005C39.8622 1.51649 39.8023 1.45474 39.7315 1.4048C39.6615 1.35394 39.5839 1.3158 39.4985 1.29038C39.4132 1.26495 39.3242 1.25224 39.2316 1.25224C39.0627 1.25224 38.9096 1.29492 38.7725 1.38028C38.6363 1.46564 38.5278 1.59141 38.447 1.75759C38.3671 1.92377 38.3271 2.12764 38.3271 2.3692C38.3271 2.61075 38.3671 2.81462 38.447 2.9808C38.5278 3.14698 38.6363 3.27276 38.7725 3.35812C38.9096 3.44348 39.0627 3.48616 39.2316 3.48616C39.3242 3.48616 39.4132 3.47345 39.4985 3.44802C39.5839 3.42259 39.6615 3.38491 39.7315 3.33496C39.8023 3.28411 39.8622 3.2219 39.9113 3.14835C39.9612 3.07388 39.9962 2.98852 40.0162 2.89226H40.354C40.3285 3.03483 40.2822 3.16242 40.215 3.27503C40.1478 3.38763 40.0643 3.48344 39.9644 3.56244C39.8645 3.64054 39.7524 3.70002 39.6279 3.74088C39.5044 3.78175 39.3723 3.80218 39.2316 3.80218C38.9936 3.80218 38.7821 3.74406 38.5968 3.62782C38.4115 3.51159 38.2658 3.34631 38.1596 3.132C38.0533 2.91769 38.0002 2.66342 38.0002 2.3692C38.0002 2.07497 38.0533 1.82071 38.1596 1.60639C38.2658 1.39208 38.4115 1.22681 38.5968 1.11057C38.7821 0.994335 38.9936 0.936216 39.2316 0.936216C39.3723 0.936216 39.5044 0.956649 39.6279 0.997513C39.7524 1.03838 39.8645 1.09831 39.9644 1.17732C40.0643 1.25541 40.1478 1.35076 40.215 1.46337C40.2822 1.57506 40.3285 1.70265 40.354 1.84613ZM41.2377 0.974357V3.76404H40.8999V0.974357H41.2377ZM42.0294 3.76404H41.6753L42.6996 0.974357H43.0483L44.0726 3.76404H43.7185L42.8848 1.41569H42.8631L42.0294 3.76404ZM42.1602 2.67432H43.5877V2.97399H42.1602V2.67432ZM46.6209 1.84613H46.2831C46.2631 1.74897 46.2281 1.6636 46.1782 1.59005C46.1291 1.51649 46.0692 1.45474 45.9984 1.4048C45.9285 1.35394 45.8508 1.3158 45.7655 1.29038C45.6801 1.26495 45.5911 1.25224 45.4985 1.25224C45.3296 1.25224 45.1765 1.29492 45.0394 1.38028C44.9032 1.46564 44.7947 1.59141 44.7139 1.75759C44.634 1.92377 44.594 2.12764 44.594 2.3692C44.594 2.61075 44.634 2.81462 44.7139 2.9808C44.7947 3.14698 44.9032 3.27276 45.0394 3.35812C45.1765 3.44348 45.3296 3.48616 45.4985 3.48616C45.5911 3.48616 45.6801 3.47345 45.7655 3.44802C45.8508 3.42259 45.9285 3.38491 45.9984 3.33496C46.0692 3.28411 46.1291 3.2219 46.1782 3.14835C46.2281 3.07388 46.2631 2.98852 46.2831 2.89226H46.6209C46.5955 3.03483 46.5491 3.16242 46.4819 3.27503C46.4147 3.38763 46.3312 3.48344 46.2313 3.56244C46.1314 3.64054 46.0193 3.70002 45.8949 3.74088C45.7714 3.78175 45.6392 3.80218 45.4985 3.80218C45.2605 3.80218 45.049 3.74406 44.8637 3.62782C44.6785 3.51159 44.5327 3.34631 44.4265 3.132C44.3202 2.91769 44.2671 2.66342 44.2671 2.3692C44.2671 2.07497 44.3202 1.82071 44.4265 1.60639C44.5327 1.39208 44.6785 1.22681 44.8637 1.11057C45.049 0.994335 45.2605 0.936216 45.4985 0.936216C45.6392 0.936216 45.7714 0.956649 45.8949 0.997513C46.0193 1.03838 46.1314 1.09831 46.2313 1.17732C46.3312 1.25541 46.4147 1.35076 46.4819 1.46337C46.5491 1.57506 46.5955 1.70265 46.6209 1.84613ZM47.5046 0.974357V3.76404H47.1668V0.974357H47.5046ZM50.5357 2.3692C50.5357 2.66342 50.4826 2.91769 50.3763 3.132C50.2701 3.34631 50.1243 3.51159 49.9391 3.62782C49.7538 3.74406 49.5422 3.80218 49.3043 3.80218C49.0664 3.80218 48.8548 3.74406 48.6696 3.62782C48.4843 3.51159 48.3385 3.34631 48.2323 3.132C48.1261 2.91769 48.0729 2.66342 48.0729 2.3692C48.0729 2.07497 48.1261 1.82071 48.2323 1.60639C48.3385 1.39208 48.4843 1.22681 48.6696 1.11057C48.8548 0.994335 49.0664 0.936216 49.3043 0.936216C49.5422 0.936216 49.7538 0.994335 49.9391 1.11057C50.1243 1.22681 50.2701 1.39208 50.3763 1.60639C50.4826 1.82071 50.5357 2.07497 50.5357 2.3692ZM50.2088 2.3692C50.2088 2.12764 50.1684 1.92377 50.0875 1.75759C50.0076 1.59141 49.8991 1.46564 49.762 1.38028C49.6258 1.29492 49.4732 1.25224 49.3043 1.25224C49.1354 1.25224 48.9824 1.29492 48.8453 1.38028C48.7091 1.46564 48.6005 1.59141 48.5197 1.75759C48.4398 1.92377 48.3998 2.12764 48.3998 2.3692C48.3998 2.61075 48.4398 2.81462 48.5197 2.9808C48.6005 3.14698 48.7091 3.27276 48.8453 3.35812C48.9824 3.44348 49.1354 3.48616 49.3043 3.48616C49.4732 3.48616 49.6258 3.44348 49.762 3.35812C49.8991 3.27276 50.0076 3.14698 50.0875 2.9808C50.1684 2.81462 50.2088 2.61075 50.2088 2.3692ZM49.1572 0.69103L49.4896 0.0589924H49.8655L49.4405 0.69103H49.1572ZM53.3158 0.974357V3.76404H52.9889L51.4688 1.5737H51.4415V3.76404H51.1037V0.974357H51.4306L52.9562 3.17014H52.9835V0.974357H53.3158Z" fill="white"/>
<path d="M35.4197 20.1716H34.6442C34.5983 19.9486 34.518 19.7526 34.4034 19.5838C34.2908 19.4149 34.1532 19.2731 33.9906 19.1585C33.8301 19.0417 33.6518 18.9542 33.4559 18.8958C33.2599 18.8374 33.0556 18.8082 32.843 18.8082C32.4552 18.8082 32.1039 18.9062 31.7891 19.1022C31.4764 19.2982 31.2273 19.5869 31.0418 19.9684C30.8583 20.3499 30.7666 20.8179 30.7666 21.3724C30.7666 21.927 30.8583 22.395 31.0418 22.7765C31.2273 23.158 31.4764 23.4467 31.7891 23.6427C32.1039 23.8387 32.4552 23.9367 32.843 23.9367C33.0556 23.9367 33.2599 23.9075 33.4559 23.8491C33.6518 23.7907 33.8301 23.7042 33.9906 23.5896C34.1532 23.4728 34.2908 23.33 34.4034 23.1611C34.518 22.9902 34.5983 22.7942 34.6442 22.5733H35.4197C35.3613 22.9006 35.255 23.1935 35.1007 23.452C34.9464 23.7105 34.7546 23.9304 34.5253 24.1118C34.296 24.2911 34.0385 24.4276 33.7529 24.5214C33.4694 24.6152 33.1661 24.6621 32.843 24.6621C32.2968 24.6621 31.811 24.5287 31.3857 24.2619C30.9605 23.995 30.6259 23.6156 30.3819 23.1236C30.138 22.6316 30.0161 22.0479 30.0161 21.3724C30.0161 20.697 30.138 20.1133 30.3819 19.6213C30.6259 19.1293 30.9605 18.7499 31.3857 18.483C31.811 18.2162 32.2968 18.0828 32.843 18.0828C33.1661 18.0828 33.4694 18.1297 33.7529 18.2235C34.0385 18.3173 34.296 18.4549 34.5253 18.6363C34.7546 18.8155 34.9464 19.0344 35.1007 19.2929C35.255 19.5494 35.3613 19.8423 35.4197 20.1716ZM36.6729 24.5746V18.1703H37.4484V21.0222H40.8631V18.1703H41.6387V24.5746H40.8631V21.7102H37.4484V24.5746H36.6729ZM43.9668 18.1703V24.5746H43.1913V18.1703H43.9668ZM45.5217 24.5746V18.1703H46.2972V23.8866H49.2742V24.5746H45.5217ZM50.475 24.5746V18.1703H54.3401V18.8583H51.2505V21.0222H54.14V21.7102H51.2505V23.8866H54.3901V24.5746H50.475Z" fill="white"/>
</g>
<defs>
<clipPath id="clip0_973_57316">
<rect width="53.7335" height="26.979" fill="white"/>
</clipPath>
</defs>
</svg>
