<svg width="62" height="41" viewBox="0 0 62 41" fill="none" xmlns="http://www.w3.org/2000/svg">
<path d="M31.9641 19.5635C30.5516 20.987 27.8072 25.1357 23.6099 25.1357V19.5635H31.9641Z" fill="#E3E3E3"/>
<path d="M44.1524 9.43618C43.9506 9.43618 43.8295 9.43618 43.5066 9.43618C42.6995 9.43618 42.1748 10.1276 42.1748 10.9411C42.1748 11.7139 42.7802 12.324 43.5066 12.3647C44.2735 12.4053 44.8788 11.8766 45.0403 11.1038C45.0806 10.8597 45.0403 10.575 45.0403 10.331C45.0403 9.92426 45.0403 9.39551 45.0403 9.39551C45.0403 9.39551 44.6367 9.39551 44.112 9.39551L44.1524 9.43618Z" fill="white"/>
<path d="M27.2421 7.03644C27.3229 7.03644 27.6861 7.03644 27.7668 7.03644C27.7668 6.83307 27.7668 6.58903 27.7668 6.46701C27.7264 6.22297 27.5246 6.06028 27.2825 6.10096C27.0403 6.10096 26.8789 6.30432 26.8789 6.54836C26.8789 6.7924 27.0403 6.99577 27.2825 7.03644H27.2421Z" fill="white"/>
<path d="M48.6725 9.47719C48.1075 9.59921 47.6636 10.0873 47.6636 10.7381C48.5111 10.5347 49.3183 10.3313 50.1658 10.0873C49.8833 9.47719 49.3183 9.3145 48.6322 9.47719H48.6725Z" fill="white"/>
<path d="M29.9462 7.03656H30.148C30.3901 7.03656 30.5515 6.79252 30.5515 6.54848C30.5515 6.30444 30.3497 6.14175 30.1076 6.10107C29.8654 6.10107 29.6233 6.26377 29.6233 6.50781V6.71117C29.6233 6.83319 29.6233 6.99589 29.6233 6.99589C29.6233 6.99589 29.7444 6.99589 29.9462 6.99589V7.03656Z" fill="white"/>
<path d="M38.26 9.43652C37.4529 9.43652 36.7668 10.0873 36.8071 10.9414C36.8071 11.7549 37.4529 12.365 38.26 12.365C39.0672 12.365 39.7129 11.7142 39.7129 10.9008C39.7129 10.128 39.0268 9.43652 38.26 9.43652Z" fill="white"/>
<path d="M55.9373 9.39517C55.1301 9.39517 54.4844 10.0459 54.4844 10.8187C54.4844 11.6322 55.1705 12.3236 55.9776 12.3236C56.7848 12.3236 57.4306 11.6322 57.3902 10.8187C57.3902 10.0053 56.7445 9.35449 55.9373 9.35449V9.39517Z" fill="white"/>
<path d="M55.8565 1.0166H28.9776C26.0314 1.0166 23.6099 3.45699 23.6099 6.42614V14.2761C23.6099 14.3574 23.6099 14.3981 23.6099 14.4794V25.1358C23.6099 25.1358 23.6099 19.767 30.5919 19.7263H55.8565C58.8027 19.7263 61.2242 17.2859 61.2242 14.3167V6.46681C61.2242 3.49767 58.8027 1.05727 55.8565 1.05727V1.0166ZM29.3408 6.50748C29.3408 6.10075 29.704 5.81604 30.0673 5.81604C30.4708 5.81604 30.7937 6.10075 30.8744 6.50748C30.9148 6.87354 30.6726 7.28028 30.3094 7.36162C30.1883 7.36162 30.0269 7.36162 29.9058 7.36162H29.6637V7.72768C29.6637 7.8497 29.6637 7.97172 29.5022 7.97172C29.3408 7.97172 29.3408 7.80903 29.3408 7.72768C29.3408 7.52432 29.3408 6.71085 29.3408 6.50748ZM28.2915 5.93806C28.2915 5.40931 28.6547 5.16527 29.0583 5.16527C29.1794 5.16527 29.2197 5.24662 29.2197 5.32796C29.2197 5.40931 29.1794 5.49065 29.0583 5.49065C28.8161 5.49065 28.6547 5.61267 28.574 5.85671C28.574 5.89739 28.574 5.93806 28.574 6.01941V6.14143C28.574 6.14143 28.6547 6.14143 28.6951 6.14143C28.8161 6.14143 28.9372 6.14143 29.0179 6.14143C29.0987 6.14143 29.2197 6.14143 29.2197 6.30412C29.2197 6.46681 29.139 6.46681 29.0583 6.46681C28.574 6.46681 28.6143 6.46681 28.6143 7.03624C28.6143 7.11758 28.6143 7.2396 28.6143 7.2396C28.6143 7.44297 28.4529 7.4023 28.4529 7.4023C28.4529 7.4023 28.2915 7.4023 28.2915 7.2396V6.58883C28.2915 6.38547 28.2915 6.1821 28.2915 5.97873V5.93806ZM27.2422 5.77537C27.6861 5.77537 28.009 6.06008 28.0493 6.50748C28.0493 6.67018 28.0493 6.99556 28.0493 7.15826C28.0493 7.32095 27.8879 7.32095 27.7668 7.32095C27.7668 7.32095 27.4036 7.32095 27.2422 7.32095C26.8386 7.32095 26.4753 6.95489 26.5157 6.54816C26.5157 6.14143 26.8386 5.77537 27.2422 5.77537ZM34.7892 13.4219C34.4664 13.4219 34.2646 13.2186 34.2646 12.8118C34.2646 12.1611 34.2646 11.7137 34.2646 11.1036C34.2646 10.1274 33.6188 9.43596 32.7713 9.47663C31.9238 9.47663 31.3587 10.0054 31.3587 10.9815C31.3587 11.5916 31.3587 12.2424 31.3587 12.8525C31.3587 13.2592 31.1973 13.4626 30.8744 13.4626C30.5516 13.4626 30.3901 13.2999 30.3901 12.8525C30.3901 12.2017 30.3901 11.673 30.3901 11.0222C30.3901 10.1681 29.7848 9.5173 28.9776 9.47663C28.2108 9.47663 27.5247 10.0461 27.4843 10.9002C27.4843 11.5103 27.4843 12.2424 27.4843 12.8118C27.4843 13.3813 27.3632 13.4219 27 13.4219C26.6368 13.4219 26.5561 13.0965 26.5561 12.8118C26.5561 12.5271 26.5561 11.2256 26.5561 10.9002C26.5561 9.84269 27.0404 9.0699 28.009 8.66317C28.9372 8.25643 29.8655 8.37845 30.5919 9.11057C30.713 9.23259 30.9148 9.43596 30.9148 9.43596C30.9148 9.43596 31.1166 9.23259 31.2377 9.11057C32.0045 8.41913 32.8924 8.25643 33.8206 8.66317C34.7892 9.11057 35.2735 9.88336 35.2735 10.9409C35.2735 11.5916 35.2735 12.1204 35.2735 12.7712C35.2735 13.1372 35.1121 13.3813 34.8296 13.3813L34.7892 13.4219ZM40.6413 10.9409C40.6413 12.2831 39.5112 13.3813 38.2197 13.3813C36.8879 13.3813 35.7982 12.2424 35.7982 10.9002C35.7982 9.55798 36.9283 8.4598 38.2601 8.4598C39.5919 8.4598 40.6816 9.55798 40.6413 10.9409ZM46.0493 10.9409C46.0493 12.2831 45.1614 13.3406 43.7085 13.3406C42.2556 13.3406 41.3677 12.4051 41.2063 11.1442C41.0448 9.88336 41.9327 8.70384 43.2242 8.4598C43.6682 8.37845 43.991 8.41913 44.5561 8.41913H45.0807V7.32095C45.0807 6.87354 45.0807 6.42614 45.565 6.42614C46.0493 6.42614 46.0493 6.95489 46.0493 7.32095C46.0493 7.97172 46.0493 8.29711 46.0493 8.94788C46.0493 9.59865 46.0493 10.2901 46.0493 10.9409ZM50.7713 10.9409C49.8431 11.1849 48.9148 11.4289 47.9462 11.673C48.2287 12.2831 49.2377 12.5678 49.9641 12.0797C50.1256 11.9577 50.2466 11.8763 50.3677 11.795C50.4888 11.673 50.6502 11.551 50.9327 11.673C51.1749 11.795 51.2556 12.1204 51.0942 12.4051C50.6906 13.0152 49.9238 13.5033 48.7534 13.3406C47.6233 13.2186 46.6951 12.2831 46.6143 11.1442C46.5336 9.92403 47.2601 8.86653 48.3498 8.54115C49.5202 8.21576 50.6906 8.78518 51.2152 9.88336C51.5381 10.7375 51.417 10.8188 50.7309 10.9815L50.7713 10.9409ZM52.9507 12.5678C52.9507 12.9339 52.9507 13.3406 52.4664 13.3406C51.9821 13.3406 51.9417 13.0152 51.9417 12.6085C51.9417 10.6562 51.9417 9.39528 51.9417 7.44297C51.9417 6.99556 51.9417 6.46681 52.426 6.46681C52.9507 6.46681 52.9103 6.91422 52.9103 7.44297C52.9103 8.41913 52.9103 11.551 52.9103 12.5678H52.9507ZM55.9372 13.2999C54.565 13.2999 53.5157 12.2424 53.5157 10.8595C53.5157 9.47663 54.565 8.37845 55.8969 8.37845C57.2287 8.37845 58.3587 9.5173 58.3587 10.8188C58.3587 12.1611 57.2691 13.2592 55.9372 13.2592V13.2999Z" fill="white"/>
</svg>
