<svg width="53" height="26" viewBox="0 0 53 26" fill="none" xmlns="http://www.w3.org/2000/svg">
<path d="M2.94168 3.21304H0.898829L0.449403 4.47391H0.0408325L1.71597 0.0405273H2.08368L3.75882 4.47391H3.35025L2.90082 3.21304H2.94168ZM1.0214 2.88765H2.81911L1.92025 0.447259L1.0214 2.88765Z" fill="white"/>
<path d="M6.98658 2.35905H4.90287V4.43338H4.53516V0H7.31343V0.325386H4.94373V2.07433H7.02743V2.39972L6.98658 2.35905Z" fill="white"/>
<path d="M8.29398 2.64376V4.47405H7.92627V0H9.43798C9.84655 0 10.2143 0.12202 10.5411 0.366059C10.8271 0.610098 10.9497 0.976157 10.9497 1.34222C10.9497 1.70827 10.8271 2.07433 10.5411 2.31837C10.2143 2.56241 9.80569 2.68443 9.39712 2.64376H8.25313H8.29398ZM8.29398 2.31837H9.43798C9.72398 2.31837 10.0508 2.23703 10.2551 2.07433C10.4594 1.87097 10.5411 1.62693 10.5411 1.34222C10.5411 1.0575 10.4594 0.813464 10.2551 0.610098C10.01 0.406732 9.72398 0.325386 9.43798 0.325386H8.29398V2.31837Z" fill="white"/>
<path d="M1.43 14.1137V18.4251H0V7.44334H4.04484C5.06627 7.40266 6.08769 7.72805 6.86398 8.37882C7.55855 8.98892 7.92626 9.88373 7.8854 10.8192C7.92626 11.7547 7.55855 12.6495 6.86398 13.2596C6.04684 13.8697 5.02541 14.1951 4.00399 14.1137H1.43ZM1.43 12.9342H4.04484C4.69856 12.9749 5.31141 12.7715 5.84255 12.4055C6.29198 11.9987 6.49626 11.4293 6.45541 10.8192C6.45541 10.2498 6.25112 9.68036 5.84255 9.23296C5.39312 8.82623 4.78027 8.58219 4.12656 8.62286H1.43V12.9342Z" fill="white"/>
<path d="M10.2143 18.4247H8.82513V6.87354H10.2143V18.4247Z" fill="white"/>
<path d="M16.2611 18.4249C16.1385 18.1402 16.0977 17.8555 16.0568 17.5708C15.444 18.2215 14.6268 18.5876 13.728 18.5876C12.9926 18.5876 12.298 18.3842 11.726 17.8961C11.2357 17.4487 10.9497 16.8386 10.9497 16.1472C10.9497 15.3744 11.2766 14.6423 11.9303 14.1542C12.7474 13.6255 13.6871 13.3814 14.6677 13.4628H16.016V12.8527C16.016 12.4053 15.8934 11.9985 15.5665 11.6731C15.1988 11.3478 14.7494 11.1851 14.2591 11.2257C13.8097 11.2257 13.3603 11.3478 12.9926 11.5918C12.6657 11.7952 12.5023 12.1206 12.5023 12.4866H11.1131C11.1131 12.0392 11.2766 11.6325 11.5626 11.3071C11.8894 10.9004 12.298 10.6156 12.7474 10.4123C13.2786 10.1682 13.8097 10.0869 14.3817 10.0869C15.1988 10.0462 15.9751 10.2903 16.588 10.7783C17.1191 11.2664 17.446 11.9985 17.4051 12.7307V16.4726C17.4051 17.0827 17.4868 17.6928 17.6911 18.2622V18.3842H16.2203L16.2611 18.4249ZM13.9323 17.3674C14.3817 17.3674 14.7903 17.2454 15.1988 17.042C15.5665 16.8386 15.8525 16.5133 16.0568 16.1472V14.4796H14.9537C13.2377 14.4796 12.3797 14.9677 12.3797 15.9845C12.3797 16.3912 12.5023 16.7573 12.8291 17.0013C13.156 17.2454 13.5646 17.3674 13.9731 17.3674H13.9323Z" fill="white"/>
<path d="M20.2651 10.2496V11.2664C20.8779 10.4936 21.8176 10.0869 22.7573 10.0869C24.4733 10.0869 25.3722 11.0631 25.3722 13.0154V18.3842H23.9831V12.9747C23.9831 12.4866 23.8605 12.0392 23.5745 11.6732C23.2476 11.3885 22.7982 11.2258 22.3488 11.2664C21.9402 11.2664 21.4908 11.3885 21.1639 11.6325C20.8371 11.8765 20.5511 12.2019 20.3468 12.568V18.3842H18.9576V10.2496H20.3059H20.2651Z" fill="white"/>
<path d="M30.5202 16.4728L33.6662 7.44336H35.2596L31.1739 18.4251H29.9074L25.8217 7.44336H27.4151L30.5611 16.4728H30.5202Z" fill="white"/>
<path d="M37.2207 18.4252H35.8316V10.2905H37.2207V18.4252Z" fill="white"/>
<path d="M40.7753 8.29736V10.2497H42.287V11.3072H40.7753V16.3507C40.7753 16.5947 40.8161 16.8794 40.9795 17.0828C41.143 17.2455 41.429 17.3675 41.6741 17.3268C41.8784 17.3268 42.1235 17.3268 42.3278 17.2455V18.3843C41.9601 18.4657 41.6333 18.547 41.2655 18.547C40.7344 18.547 40.2033 18.3843 39.8356 17.9776C39.5087 17.5302 39.3044 16.9608 39.3453 16.3913V8.29736H40.7344H40.7753Z" fill="white"/>
<path d="M48.1704 18.4249C48.0478 18.1402 48.007 17.8555 47.9661 17.5708C47.3533 18.2215 46.5361 18.5876 45.6373 18.5876C44.9019 18.5876 44.2073 18.3842 43.6353 17.8961C43.145 17.4487 42.859 16.8386 42.859 16.1472C42.859 15.3744 43.1859 14.6423 43.8396 14.1542C44.6567 13.6255 45.5964 13.3814 46.577 13.4628H47.9253V12.8527C47.9253 12.4053 47.8027 11.9985 47.4759 11.6731C47.1081 11.3478 46.6587 11.1851 46.1684 11.2257C45.719 11.2257 45.2696 11.3478 44.9019 11.5918C44.575 11.7952 44.4116 12.1206 44.4116 12.4866H43.0224C43.0224 12.0392 43.1859 11.6325 43.4719 11.3071C43.7987 10.9004 44.2073 10.6156 44.6567 10.4123C45.1879 10.1682 45.719 10.0869 46.291 10.0869C47.1081 10.0462 47.8844 10.2903 48.4973 10.7783C49.0284 11.2664 49.3553 11.9985 49.3144 12.7307V16.4726C49.3144 17.0827 49.3961 17.6928 49.6004 18.2622V18.3842H48.1296L48.1704 18.4249ZM45.8824 17.3674C46.3319 17.3674 46.7404 17.2454 47.149 17.042C47.5167 16.8386 47.8027 16.5133 48.007 16.1472V14.4796H46.9039C45.1879 14.4796 44.3299 14.9677 44.3299 15.9845C44.3299 16.3912 44.4524 16.7573 44.7793 17.0013C45.1061 17.2454 45.5147 17.3674 45.8824 17.3674Z" fill="white"/>
<path d="M52.3787 18.4247H50.9896V6.87354H52.3787V18.4247Z" fill="white"/>
<path d="M37.2616 7.28027H35.7907V8.82586H37.2616V7.28027Z" fill="white"/>
<path d="M0 24.1597C0 24.0783 0 23.997 0 23.9563L0.285999 22.6548H0.694569L0.40857 23.9157C0.40857 23.997 0.40857 24.0377 0.40857 24.119C0.40857 24.3631 0.612856 24.5664 0.857998 24.5664C0.857998 24.5664 0.898854 24.5664 0.939711 24.5664C1.34828 24.5664 1.51171 24.3224 1.59342 23.997L1.87942 22.6548H2.28799L2.00199 23.997C2.00199 24.5258 1.47085 24.9732 0.939711 24.9325C0.367713 24.9325 0.0408579 24.6478 0.0408579 24.1597H0Z" fill="white"/>
<path d="M3.59541 23.8754V23.794C3.59541 23.6313 3.47284 23.55 3.30941 23.55C3.14599 23.55 2.98256 23.6313 2.85999 23.7534L2.61484 24.8922H2.24713L2.61484 23.2653H2.98256V23.4686C3.06427 23.306 3.26856 23.2246 3.47284 23.2246C3.75884 23.2246 3.96313 23.3873 3.96313 23.6313C3.96313 23.672 3.96313 23.7127 3.96313 23.7534L3.71798 24.8922H3.35027L3.55456 23.8754H3.59541Z" fill="white"/>
<path d="M5.67912 23.2651H6.04684L5.67912 24.8921H5.31141V24.6887C5.2297 24.8514 5.06627 24.9327 4.86198 24.9327C4.53513 24.9327 4.24913 24.6887 4.24913 24.3633V24.282C4.20827 23.7532 4.57598 23.3058 5.10712 23.2651C5.31141 23.2651 5.51569 23.3465 5.63827 23.5498V23.3058L5.67912 23.2651ZM4.98455 24.6074C5.14798 24.6074 5.31141 24.526 5.39312 24.3633L5.55655 23.7532C5.47484 23.5905 5.31141 23.5092 5.10712 23.5498C4.78027 23.5498 4.53513 23.8752 4.57598 24.2006C4.57598 24.404 4.69855 24.6074 4.90284 24.6074C4.90284 24.6074 4.90284 24.6074 4.9437 24.6074H4.98455Z" fill="white"/>
<path d="M8.00795 23.2246C8.25309 23.2246 8.49823 23.306 8.66166 23.55L8.37566 23.7534C8.29395 23.6313 8.17138 23.55 8.00795 23.55C7.68109 23.55 7.39509 23.8347 7.43595 24.1601C7.43595 24.4041 7.59938 24.5668 7.84452 24.6075C7.84452 24.6075 7.84452 24.6075 7.88538 24.6075C8.04881 24.6075 8.17138 24.5262 8.25309 24.4448L8.45738 24.6888C8.29395 24.8515 8.08966 24.9329 7.84452 24.9329C7.43595 24.9329 7.10909 24.6888 7.06824 24.2821C7.06824 24.2821 7.06824 24.2414 7.06824 24.2008C7.06824 23.672 7.47681 23.2246 8.00795 23.2246Z" fill="white"/>
<path d="M9.64223 23.2246C10.0508 23.2246 10.3777 23.4686 10.4185 23.8754V23.9567C10.4185 24.4855 10.0099 24.8922 9.4788 24.9329C9.07023 24.9329 8.74337 24.6888 8.70251 24.3228C8.70251 24.3228 8.70251 24.2414 8.70251 24.2008C8.70251 23.672 9.11109 23.2246 9.64223 23.2246ZM9.64223 23.55C9.31537 23.55 9.07023 23.8754 9.11108 24.2008C9.11108 24.4041 9.23366 24.6075 9.4788 24.6482C9.4788 24.6482 9.51966 24.6482 9.56051 24.6482C9.88737 24.6482 10.1325 24.3228 10.0917 23.9974C10.0917 23.794 9.96908 23.5907 9.72394 23.55C9.72394 23.55 9.68308 23.55 9.64223 23.55Z" fill="white"/>
<path d="M12.8291 23.8347V23.7534C12.8291 23.6313 12.7065 23.55 12.5839 23.55C12.4205 23.55 12.2979 23.6313 12.2162 23.7534L11.9711 24.8922H11.6034L11.8485 23.8754C11.8485 23.8754 11.8485 23.794 11.8485 23.7534C11.8485 23.6313 11.7668 23.55 11.6034 23.55C11.4399 23.55 11.3174 23.6313 11.2357 23.7534L10.9905 24.8922H10.6228L10.9905 23.2653H11.3582V23.4686C11.4399 23.306 11.6034 23.2246 11.8077 23.2246C12.0119 23.2246 12.1754 23.306 12.2571 23.5093C12.3797 23.3466 12.5839 23.2246 12.8291 23.2246C13.0742 23.2246 13.2377 23.3873 13.2785 23.5907C13.2785 23.672 13.2785 23.7127 13.2785 23.7534L13.0334 24.8515H12.6657L12.9108 23.8347H12.8291Z" fill="white"/>
<path d="M13.6462 25.5023H13.2785L13.7688 23.2653H14.1365V23.4686C14.2182 23.306 14.3816 23.2246 14.5859 23.2246C14.9128 23.2246 15.1988 23.4686 15.1988 23.794C15.1988 23.794 15.1988 23.8347 15.1988 23.8754C15.2396 24.4041 14.8719 24.8515 14.3408 24.8922C14.1365 24.8922 13.9322 24.8109 13.8096 24.6075L13.6054 25.4616L13.6462 25.5023ZM14.4225 23.55C14.2591 23.55 14.0956 23.6313 13.9731 23.794L13.8096 24.4041C13.8914 24.5668 14.0548 24.6482 14.2591 24.6075C14.5859 24.6075 14.8311 24.2821 14.7902 23.9567C14.7902 23.7534 14.6676 23.55 14.4225 23.5093V23.55Z" fill="white"/>
<path d="M16.8739 23.2651H17.2417L16.8739 24.8921H16.5062V24.6887C16.4245 24.8514 16.2611 24.9327 16.0568 24.9327C15.73 24.9327 15.444 24.6887 15.444 24.3633V24.282C15.4031 23.7532 15.7708 23.3058 16.3019 23.2651C16.5062 23.2651 16.7105 23.3465 16.8331 23.5498V23.3058L16.8739 23.2651ZM16.1794 24.6074C16.3428 24.6074 16.5062 24.526 16.5879 24.3633L16.7514 23.7532C16.6697 23.5905 16.5062 23.5092 16.3019 23.5498C15.9751 23.5498 15.73 23.8752 15.7708 24.2006C15.7708 24.404 15.8934 24.6074 16.0977 24.6074C16.0977 24.6074 16.0977 24.6074 16.1385 24.6074H16.1794Z" fill="white"/>
<path d="M18.6308 23.8754V23.7941C18.6308 23.6314 18.5082 23.55 18.3448 23.55C18.1814 23.55 18.018 23.6314 17.8954 23.7534L17.6502 24.8923H17.2825L17.6502 23.2653H18.018V23.4687C18.0997 23.306 18.304 23.2246 18.5082 23.2246C18.7942 23.2246 18.9985 23.3873 18.9985 23.6314C18.9985 23.6721 18.9985 23.7127 18.9985 23.7534L18.7534 24.8923H18.3857L18.59 23.8754H18.6308ZM18.304 22.7366C18.2222 22.7366 18.1405 22.8179 18.1405 22.9806H17.9362C17.9771 22.6959 18.0997 22.5332 18.3448 22.5332C18.4265 22.5332 18.5491 22.5739 18.59 22.6959C18.6308 22.7366 18.6717 22.8179 18.7534 22.8179C18.8351 22.8179 18.876 22.7366 18.9168 22.5739H19.1211C19.0802 22.8586 18.9577 23.0213 18.7125 23.0213C18.6308 23.0213 18.5082 22.9806 18.4674 22.8586C18.4265 22.8179 18.3857 22.7366 18.304 22.7366Z" fill="white"/>
<path d="M19.6114 23.2653H19.9791L19.6114 24.8923H19.2437L19.6114 23.2653ZM19.6931 23.0213L20.2651 22.5332H20.5919L19.9382 23.0213H19.6931Z" fill="white"/>
<path d="M21.5725 23.2651H21.9402L21.5725 24.8921H21.2048V24.6887C21.1231 24.8514 20.9596 24.9327 20.7554 24.9327C20.4285 24.9327 20.1425 24.6887 20.1425 24.3633V24.282C20.1016 23.7532 20.4694 23.3058 21.0005 23.2651C21.2048 23.2651 21.4091 23.3465 21.5316 23.5498V23.3058L21.5725 23.2651ZM20.8779 24.6074C21.0414 24.6074 21.2048 24.526 21.2865 24.3633L21.4499 23.7532C21.3682 23.5905 21.2048 23.5092 21.0005 23.5498C20.6736 23.5498 20.4285 23.8752 20.4694 24.2006C20.4694 24.404 20.5919 24.6074 20.7962 24.6074C20.7962 24.6074 20.7962 24.6074 20.8371 24.6074H20.8779Z" fill="white"/>
<path d="M35.0144 23.7124V22.2481C35.9541 22.2481 36.281 22.2075 36.4444 23.3463H36.5261V22.0854H33.993V22.2481H34.4424V25.502H33.9521V25.6647H36.567V24.3225H36.4444C36.3219 25.3393 36.0767 25.4613 35.3413 25.4613H35.0144V23.8751H35.2187C35.5456 23.8751 35.709 24.0784 35.7907 24.6072H35.9133V22.9803C35.9133 22.9803 35.8316 22.9803 35.7907 22.9803C35.7907 22.9803 35.7907 23.6717 35.2187 23.6717H35.0553L35.0144 23.7124Z" fill="white"/>
<path d="M33.993 23.7939H32.5631V23.9565H33.0533V25.1361C32.9716 25.4208 32.5222 25.5428 32.3996 25.5428C31.5008 25.5428 31.5416 24.2006 31.5416 23.8752C31.5416 23.5498 31.5416 22.2076 32.3996 22.2076C33.2576 22.2076 33.3393 22.8177 33.4619 23.3464H33.5436V22.0449L33.1351 22.3296C32.9308 22.1262 32.6856 22.0042 32.3996 22.0449C31.3373 22.0449 30.9288 23.1024 30.9288 23.8345C30.9288 24.526 31.2556 25.6648 32.3996 25.6648C32.6856 25.6648 32.9716 25.5428 33.1351 25.2581L33.5845 25.6241V23.9159H33.9522V23.7532L33.993 23.7939Z" fill="white"/>
<path d="M50.6218 24.3224C50.4993 25.3393 50.2541 25.4613 49.5187 25.4613H49.4778V22.2074H49.9273V22.0447H48.4156V22.2074H48.865V25.4613H48.4973L47.1898 21.9634H46.9856L45.8824 25.1359C45.8824 25.1359 45.8007 25.4206 45.5964 25.4613C45.433 25.4613 45.433 25.3799 45.433 25.3393V24.7292C45.433 24.4851 45.3921 24.2411 45.2696 24.0377C45.1061 23.9157 44.9427 23.8343 44.7793 23.8343C45.2287 23.753 45.5556 23.3463 45.5964 22.8989C45.5964 22.3701 45.2287 22.0854 44.575 22.0447H42.7773V22.2074H43.2267V25.4613H42.7773V25.624H44.2481V25.4613H43.7987V23.9157H44.4116C45.4738 23.997 44.2481 25.6646 45.6373 25.6646H46.4953V25.502C46.4544 25.502 46.1276 25.502 46.0867 25.2986C46.1276 25.0545 46.2093 24.8105 46.291 24.5665H47.4758L47.8435 25.502H47.435V25.6646H50.7035V24.3224H50.581H50.6218ZM44.4116 23.753H43.8396V22.2481H44.575C45.0244 22.3294 45.0244 22.8175 45.0244 22.9802C45.0244 23.3869 44.861 23.753 44.4116 23.753ZM46.4136 24.3631L46.9447 22.8175L47.5167 24.3631H46.4544H46.4136Z" fill="white"/>
<path d="M41.0205 22.2481C41.9602 22.2481 42.287 22.2075 42.4504 23.3463H42.5322V22.0854H38.855V22.2481H38.9368C39.0593 22.2481 39.3862 22.2481 39.3862 22.5329V24.6072L37.6702 22.0854H36.7305V22.2481H36.8939C37.0573 22.2481 37.3433 22.2481 37.3433 22.5329V25.1766C37.3433 25.4207 36.9348 25.5427 36.8122 25.5427V25.6647H38.0788V25.5427C37.9153 25.5427 37.5068 25.4613 37.5068 25.1766V22.8582C38.2013 23.8344 39.4679 25.6647 39.4679 25.6647H39.5496V22.5329C39.5496 22.2481 39.8765 22.2481 39.999 22.2481H40.4076V25.502H39.9173V25.6647H42.5322V24.3225H42.4096C42.287 25.3393 42.0419 25.4613 41.3065 25.4613H40.9796V23.8751H41.1839C41.5107 23.8751 41.6742 24.0784 41.7559 24.6072H41.8785V22.9803C41.8785 22.9803 41.7967 22.9803 41.7559 22.9803C41.7559 22.9803 41.7559 23.6717 41.1839 23.6717H41.0205V22.2075V22.2481Z" fill="white"/>
<path d="M52.3787 22.2481V22.0854H50.9078V22.2481H51.3573V25.502H50.9078V25.6647H52.3787V25.502H51.9293V22.2481H52.3787Z" fill="white"/>
<path d="M29.2128 25.3393H29.3353C29.5396 25.2173 29.5396 25.1766 29.5396 25.0546V24.5665C29.703 24.9326 29.8256 25.1766 30.1116 25.1766C30.1525 25.1766 30.1933 25.1766 30.2342 25.1766H30.3567L30.275 25.0546C30.275 25.0139 30.1933 24.9732 30.1933 24.8919C30.1933 24.8919 30.1933 24.8919 30.1933 24.8105C30.1116 24.6885 29.989 24.6479 29.8665 24.7292C29.7848 24.6072 29.7439 24.4445 29.6622 24.2818C29.6622 24.2004 29.6622 24.2004 29.6622 24.1598C29.6213 24.0784 29.5805 23.9564 29.4988 23.8751C29.4579 23.7937 29.417 23.7124 29.3353 23.6717C29.1719 23.509 28.9676 23.387 28.7633 23.3463C28.6408 23.3463 28.4773 23.3463 28.3548 23.3463H28.273C28.1913 23.3463 28.0688 23.3463 27.9462 23.3463H27.701C27.701 23.3056 27.701 23.265 27.701 23.265C27.701 23.265 27.701 23.2243 27.701 23.1836H28.6408C28.9676 22.9802 29.3353 22.7769 29.6622 22.5328C29.9073 22.5328 30.1116 22.4108 30.1933 22.2075V22.1261C30.2342 22.1261 27.0882 22.1261 27.0882 22.1261C26.8839 22.1261 26.6796 22.2481 26.6388 22.4515C26.5979 22.3295 26.4753 22.2075 26.3528 22.1261C26.1893 22.0448 25.985 22.0041 25.8216 22.0448C25.7808 22.0448 25.7399 22.0448 25.6582 22.1261C25.6173 22.1261 25.5765 22.2075 25.5356 22.2481C25.4948 22.2888 25.4539 22.3702 25.4131 22.4108C25.4131 22.4108 25.4131 22.4108 25.3722 22.4515C25.3722 22.5735 25.2905 22.6549 25.2088 22.7362C25.2088 22.7362 25.1679 22.8176 25.2088 22.8582C25.2088 22.8582 25.2088 22.8989 25.2496 22.9396C25.2496 22.9396 25.2496 22.9802 25.2496 23.0209C25.2496 23.1023 25.3313 23.1836 25.4131 23.1836C25.4948 23.1836 25.5356 23.1836 25.5765 23.1023L25.6582 23.0616C25.6582 23.0616 25.699 23.0616 25.699 23.1023C25.699 23.1836 25.6173 23.2243 25.5356 23.2243H25.4131C25.3313 23.2243 25.2905 23.3056 25.2905 23.3463C25.2905 23.387 25.2905 23.4277 25.2905 23.4277L25.1679 23.631C25.0862 23.5497 24.9636 23.509 24.8411 23.4683C24.8002 23.4683 24.7185 23.4683 24.6776 23.509C24.5551 23.509 24.4325 23.5903 24.3916 23.7124C24.3916 23.7937 24.3916 23.8344 24.4733 23.9157L24.1465 23.9971V25.624H30.4385V25.2986H29.2945L29.2128 25.3393ZM30.0299 24.8919C30.0299 24.9732 30.0299 24.9732 30.0299 25.0139C29.9073 25.0139 29.8256 24.9326 29.7847 24.8512C29.8256 24.8512 29.9073 24.8512 29.9482 24.8512M28.6816 23.509C28.8859 23.509 29.0493 23.631 29.1719 23.7937C29.1719 23.7937 29.2128 23.8751 29.2536 23.8751C28.9676 23.8751 28.7225 23.7124 28.5999 23.509H28.6816ZM28.5182 23.0209H27.8645C27.9053 22.9802 27.987 22.8989 27.987 22.8176H28.845C28.7633 22.9396 28.6408 23.0209 28.4773 23.0209M29.0493 22.6955H28.3956C28.4773 22.6549 28.5182 22.5735 28.559 22.4922H29.417C29.3353 22.6142 29.2128 22.6955 29.0493 22.6955ZM29.0902 22.2075H29.9482C29.8665 22.3295 29.7439 22.3702 29.5805 22.3702H28.9268C28.9676 22.3295 29.0085 22.2481 29.0493 22.2075M25.5765 22.2481C25.6582 22.1261 25.8216 22.0854 25.985 22.1261L25.7399 22.2888H25.6582C25.6582 22.2888 25.5765 22.2888 25.5356 22.2888M25.2905 23.265H25.4131C25.5356 23.265 25.699 23.1836 25.699 23.0616C25.699 22.9802 25.6173 22.8989 25.5356 22.8582C25.4539 22.8582 25.4131 22.8582 25.3722 22.9396L25.2905 22.9802L25.3722 22.8989H25.2905C25.2905 22.8582 25.2905 22.8176 25.2905 22.8176C25.2905 22.8176 25.3313 22.7362 25.3722 22.6955C25.3722 22.6955 25.3722 22.6549 25.4131 22.6549C25.4539 22.6549 25.4539 22.6549 25.4539 22.6955C25.4539 22.6955 25.4539 22.6955 25.4948 22.6955C25.5356 22.6955 25.4948 22.6955 25.5356 22.6955C25.5356 22.6955 25.6173 22.6549 25.5356 22.6142C25.5356 22.6142 25.3313 22.6142 25.3722 22.4922C25.4539 22.4108 25.5356 22.3702 25.6173 22.3702H25.7399L26.0668 22.1668C26.0668 22.2888 26.0259 22.4108 25.9033 22.4515H25.8625V22.6142C25.7808 22.6142 25.7399 22.6955 25.699 22.7769V22.8582C25.699 22.8989 25.699 22.9396 25.699 23.0209C25.699 23.1836 25.4948 23.265 25.2905 23.265C25.2496 23.265 25.2088 23.265 25.1271 23.265H25.2905ZM24.4733 23.7124C24.4733 23.6717 24.5551 23.631 24.6368 23.6717H24.6776V23.631C24.6776 23.631 24.7185 23.631 24.7593 23.631C24.8411 23.631 24.9636 23.7124 25.0045 23.7937C25.0045 23.7937 25.0453 23.8751 25.0862 23.9157C25.0862 23.9564 25.0862 23.9971 25.0862 23.9971L25.1679 23.8751V23.8344C25.1679 23.8344 25.1679 23.8344 25.1679 23.7937L25.3313 23.509H25.4131C25.6582 23.509 25.9033 23.387 25.9033 23.1429C25.9033 23.0616 25.9033 23.0209 25.9033 22.9802C25.9033 22.9802 25.9033 22.9396 25.9033 22.8989C25.9033 22.8989 25.9033 22.8582 25.985 22.8582H26.0668V22.6549C26.1485 22.5735 26.1893 22.4515 26.1893 22.3295C26.3119 22.4515 26.3936 22.5735 26.3936 22.7362C26.3936 22.8176 26.3936 22.8582 26.3936 22.9396C26.3936 23.0616 26.3528 23.1836 26.3119 23.265C26.3119 23.3056 26.3528 23.3463 26.3528 23.3463C26.4345 23.387 26.5162 23.4277 26.5162 23.5497C26.5162 23.6717 26.3936 23.7937 26.271 23.7937H26.1076L26.2302 23.9157C26.271 23.9157 26.3119 23.9971 26.3119 24.0378C26.3119 24.1191 26.2302 24.2004 26.1485 24.2004H26.0668C26.0259 24.4038 25.985 24.4852 25.7808 24.4852C25.7808 24.4445 25.7808 24.3631 25.7808 24.3225V24.1191L25.6582 24.2411C25.6173 24.2411 25.5356 24.3225 25.4948 24.3225V24.2004L24.7593 23.9971L24.5142 24.0784C24.4733 24.0378 24.4325 23.9564 24.4733 23.9157M24.2691 25.3393L24.8002 25.1766L25.3313 25.3393H24.2691ZM25.4131 25.2173L24.8002 25.0546L24.1873 25.2173V24.1191L24.8002 23.9564L25.4131 24.1191V25.2173ZM25.699 25.0139C25.6582 25.0953 25.6173 25.2173 25.699 25.3393H25.5765V24.2818C25.6173 24.2818 25.6582 24.2818 25.7399 24.2411C25.7399 24.2818 25.7399 24.3225 25.7399 24.3631V24.4852H25.8216C25.9033 24.4852 25.985 24.4852 26.1076 24.4445V24.8919C26.0259 24.8919 25.9033 24.8919 25.8625 25.0139M27.129 25.0139C27.0473 25.0953 27.0473 25.2173 27.0473 25.2986H26.271C26.3528 25.2986 26.3936 25.2986 26.4753 25.2173C26.5162 25.1766 26.557 25.0953 26.5162 25.0546C26.5162 25.0546 26.5162 25.0546 26.557 25.0139H26.6388L26.5979 24.9326C26.557 24.7699 26.557 24.6072 26.5979 24.4852C26.8022 24.4852 27.0065 24.4852 27.2108 24.3631C27.2516 24.3631 27.2925 24.3631 27.3742 24.3225C27.3742 24.3225 27.415 24.3225 27.4968 24.3225L27.7419 24.7699C27.7419 24.7699 27.7419 24.8105 27.7419 24.8919L27.6193 25.0546H27.415C27.3333 25.0139 27.2108 25.0546 27.1699 25.0953M27.2108 25.3393C27.2108 25.2579 27.2108 25.1766 27.2108 25.1359C27.2108 25.0953 27.2925 25.0953 27.3742 25.0953H27.6193C27.6193 25.1359 27.6602 25.1359 27.6602 25.1359L27.8236 24.9326C27.9053 24.8512 27.9053 24.7292 27.8236 24.6478L27.5785 24.2818C27.5785 24.2818 27.6602 24.2818 27.701 24.2818C27.7828 24.2818 27.8645 24.2818 27.9462 24.3631L28.0279 24.5258C28.0688 24.6072 28.1505 24.7292 28.1505 24.8105C28.1505 24.8512 28.1505 24.8919 28.1505 24.9326L27.701 25.38H27.2108V25.3393ZM28.7225 25.3393H27.8645L28.2322 24.9732C28.3139 24.8919 28.3139 24.8105 28.3139 24.7292C28.3139 24.6479 28.2322 24.5665 28.1913 24.4852C28.4365 24.5665 28.7225 24.6478 29.0085 24.6478C29.0493 24.6478 29.0902 24.6479 29.0902 24.7292V24.9326L28.8859 24.9732C28.8042 24.9732 28.7633 25.0546 28.7225 25.1359C28.7225 25.2173 28.7225 25.3393 28.7225 25.4206M28.8042 25.0953C28.8042 25.0953 28.8042 25.0546 28.8859 25.0546L29.2536 24.9732V24.6478C29.2536 24.5665 29.1719 24.4852 29.0493 24.4852C28.7225 24.4852 28.3956 24.4038 28.1505 24.2411C28.0688 24.1598 27.9462 24.1598 27.8236 24.1191C27.701 24.1191 27.5376 24.1191 27.415 24.2004H27.2516C27.0473 24.3225 26.843 24.3631 26.5979 24.3631H26.5162C26.4753 24.6072 26.4753 24.7699 26.5162 24.9732C26.5162 24.9732 26.4345 25.0546 26.4345 25.0953C26.4345 25.1766 26.4345 25.1766 26.4345 25.1766C26.3528 25.1766 26.271 25.2173 26.1893 25.1766H26.1485C26.0668 25.2579 25.985 25.2986 25.9033 25.2986C25.9033 25.2173 25.9033 25.1359 25.9033 25.0546C25.9033 25.0139 25.985 24.9732 26.0668 24.9732C26.1485 24.9732 26.2302 24.8919 26.2302 24.8105V24.2411C26.2302 24.2004 26.271 24.1598 26.3119 24.1191C26.4345 24.1191 26.557 23.9971 26.557 23.8344C26.557 23.7937 26.557 23.7124 26.5162 23.6717C26.6388 23.631 26.7613 23.4683 26.7613 23.3463C26.7613 23.2243 26.7205 23.1023 26.5979 23.0616C26.5979 22.9802 26.6388 22.8582 26.6796 22.7769L26.8022 22.3702C26.8022 22.2075 26.9656 22.1261 27.129 22.1261H29.0493C28.9676 22.2481 28.845 22.2888 28.6816 22.2888H27.5376V22.4108C27.4968 22.4108 28.5182 22.4108 28.5182 22.4108C28.4365 22.5328 28.3139 22.6142 28.1505 22.6142H27.3742V22.7362C27.3333 22.7362 27.987 22.7362 27.987 22.7362C27.9053 22.8582 27.7828 22.9396 27.6193 22.9396H27.2108V23.0616C27.1699 23.0616 27.5785 23.0616 27.5785 23.0616C27.5785 23.0616 27.5785 23.1023 27.5785 23.1429C27.5785 23.2243 27.4968 23.3056 27.415 23.3056H27.3333H27.2516C27.2516 23.265 27.1699 23.3463 27.1699 23.3463H27.2108C27.2925 23.387 27.3333 23.4277 27.415 23.4277C27.4968 23.4277 27.5785 23.4277 27.6193 23.3463H27.9462C28.0688 23.3463 28.2322 23.387 28.273 23.387H28.5182C28.6816 23.753 29.0493 23.9564 29.417 23.9564C29.417 24.0378 29.4988 24.0784 29.4988 24.1598V25.0546C29.4988 25.0546 29.417 25.0953 29.3762 25.1359L28.9268 25.2986C28.8859 25.258 28.845 25.1766 28.8859 25.0953" fill="white"/>
<path d="M24.3508 24.3631C24.3508 24.3224 24.3508 24.2817 24.3508 24.2817C24.3508 24.2817 24.3508 24.2817 24.3099 24.2817H24.2282V24.4038H24.3099L24.3508 24.3631ZM24.3508 24.2817C24.3508 24.2004 24.3508 24.2004 24.3508 24.2411C24.3508 24.2411 24.3508 24.2411 24.3508 24.2817Z" fill="white"/>
<path d="M24.3916 24.3632H24.4325H24.4733H24.555L24.5142 24.2412V24.3632C24.4733 24.3632 24.4325 24.3632 24.4325 24.3632" fill="white"/>
<path d="M24.5959 24.2817H24.6776V24.2003V24.1597H24.6368H24.5551V24.2003C24.5551 24.241 24.5551 24.2817 24.5551 24.2817H24.5959Z" fill="white"/>
<path d="M24.3916 24.4448C24.3916 24.4042 24.269 24.4448 24.269 24.4448V24.5669H24.3508V24.4448H24.3916Z" fill="white"/>
<path d="M24.4733 24.4038H24.3916V24.5258H24.4733V24.4038Z" fill="white"/>
<path d="M24.5142 24.526H24.5959C24.5959 24.526 24.5959 24.526 24.6368 24.4853H24.5551V24.6073M24.5551 24.4853V24.404V24.3633" fill="white"/>
<path d="M24.7185 24.3633H24.6368V24.4853H24.7185V24.3633Z" fill="white"/>
<path d="M24.7594 24.6884V24.6478H24.6776H24.6368V24.7698C24.5959 24.7698 24.5551 24.7698 24.5551 24.7698V24.6478H24.5142V24.7698V24.6884H24.4325V24.8104H24.4734H24.5142V24.6478C24.5551 24.6478 24.5551 24.7698 24.5551 24.7698H24.6368H24.6776H24.7185H24.8002H24.8819C24.8819 24.7291 24.9228 24.7698 24.9228 24.7698H24.9636L24.7594 24.6884ZM24.7185 24.6071V24.5664V24.6071Z" fill="white"/>
<path d="M24.3916 24.8516C24.3916 24.8516 24.3916 24.8516 24.3916 24.8922H24.4325C24.4325 24.8516 24.4325 24.8516 24.4325 24.8516H24.3916Z" fill="white"/>
<path d="M24.5551 24.9327C24.5551 24.8921 24.5551 24.8921 24.5551 24.8921V24.8107C24.5551 24.77 24.5551 24.77 24.5551 24.77C24.5551 24.7294 24.4325 24.77 24.4325 24.77V24.8921H24.5551V24.8107V24.9327Z" fill="white"/>
<path d="M24.7593 24.8515C24.7593 24.8515 24.7593 24.8922 24.7185 24.8922C24.7185 24.8515 24.7185 24.8515 24.7185 24.8515V24.7702C24.7185 24.7295 24.7185 24.7295 24.7185 24.7295C24.7185 24.6888 24.5959 24.7295 24.5959 24.7295V24.8515H24.7185V24.7702L24.7593 24.8515Z" fill="white"/>
<path d="M24.9228 24.2817V24.1597C25.0045 24.1597 25.0045 24.1597 25.0045 24.1597H24.9636H24.8819L24.9228 24.3224V24.2817Z" fill="white"/>
<path d="M25.0045 24.2817H25.0454H25.0862H25.1679V24.1597H25.1271V24.2817C25.0862 24.2817 25.0862 24.2817 25.0862 24.2817" fill="white"/>
<path d="M25.1679 24.2007V24.3227H25.2088V24.2414L25.2905 24.404V24.282H25.2496C25.2496 24.3227 25.1679 24.2414 25.1679 24.2414H25.1271L25.1679 24.2007Z" fill="white"/>
<path d="M24.8819 24.4445H24.9227H24.841C24.841 24.4038 24.841 24.4038 24.841 24.4038C24.841 24.4038 24.841 24.4038 24.8002 24.4038C24.8002 24.4038 24.8002 24.4038 24.8002 24.4445" fill="white"/>
<path d="M25.1271 24.5668C25.1271 24.5261 25.1271 24.5261 25.1271 24.5261V24.4448C25.1271 24.4041 25.1271 24.4041 25.1271 24.4041C25.1271 24.3634 25.0045 24.3228 25.0045 24.3228V24.4448H25.1271V24.5668Z" fill="white"/>
<path d="M25.2905 24.5258H25.2496V24.4038H25.1679V24.5258H25.2905Z" fill="white"/>
<path d="M25.2905 24.4448V24.5668H25.3722V24.4448H25.2905Z" fill="white"/>
<path d="M25.0862 24.6074H24.9636V24.7294H25.0453V24.6074" fill="white"/>
<path d="M25.2088 24.77H25.2905V24.6479H25.2496V24.77C25.2088 24.77 25.2088 24.77 25.2088 24.77H25.2496H25.2905M25.2088 24.7293H25.1679V24.6886L25.2088 24.7293Z" fill="white"/>
<path d="M25.2905 24.8922H25.2496H25.2088H25.0862H25.0454V24.9736L24.9636 24.8516H24.9228V24.9736H24.9636V24.8922V25.0549H25.0045V24.9329C25.0454 24.9329 25.0454 25.0549 25.0454 25.0549H25.0862L25.2088 25.0956C25.2088 25.0549 25.2088 25.0549 25.2088 25.0549V24.9736C25.2088 24.9329 25.2088 24.9329 25.2088 24.9329V25.0549H25.2496V24.9736C25.2905 24.9736 25.2905 24.9736 25.2905 24.9736V24.8922Z" fill="white"/>
</svg>
